<svg xmlns="http://www.w3.org/2000/svg" xmlns:xlink="http://www.w3.org/1999/xlink" id="exportSvg" width="600" height="928"><defs/><rect width="600" height="928" transform="translate(0, 0)" fill="rgb(255, 255, 255)" style="fill: rgb(255, 255, 255);"/><g><g id="__svelte-dw-svg" clip-path="url(#rect-mask-RMXBYILB7dEbuGvj_I4bX)"><clipPath id="rect-mask-RMXBYILB7dEbuGvj_I4bX"><rect x="0" y="0" width="600" height="923"/></clipPath><g id="outer-container-svg dw-chart-styles-svg datawrapper-W9bTv-158ebwc-svg svelte-13lpkhe-svg static-svg" clip-path="url(#rect-mask-IL930dJ5ovCrYXHrwDRsq)"><clipPath id="rect-mask-IL930dJ5ovCrYXHrwDRsq"><rect x="0" y="0" width="600" height="923"/></clipPath><g id="header-svg"><text transform="translate(0, 0)"><tspan fill="rgb(51,51,51)" x="0" y="21" style="font-family: Roboto; font-weight: 400; font-stretch: 100%; font-size: 20px;">Lernende der Sekundarstufe II nach Wohnkanton und</tspan><tspan fill="rgb(51,51,51)" x="0" y="47" style="font-family: Roboto; font-weight: 400; font-stretch: 100%; font-size: 20px;">Ausbildungstyp, 2022/23</tspan></text></g><g id="chart-svg"><text transform="translate(0, 74)"><tspan fill="rgb(117,117,117)" x="16" y="13.421875" style="font-family: Roboto; font-weight: 400; font-stretch: 100%; font-size: 12px;">Übergangsausbildungen</tspan><tspan fill="rgb(117,117,117)" dx="2.984375" style="font-family: Roboto; font-weight: 400; font-stretch: 100%; font-size: 12px;">Sek. I - Sek. II</tspan></text><text transform="translate(235.625, 74)"><tspan fill="rgb(117,117,117)" x="16" y="13.421875" style="font-family: Roboto; font-weight: 400; font-stretch: 100%; font-size: 12px;">Berufliche</tspan><tspan fill="rgb(117,117,117)" dx="2.984375" style="font-family: Roboto; font-weight: 400; font-stretch: 100%; font-size: 12px;">Grundbildung¹</tspan></text><text transform="translate(401.015625, 74)"><tspan fill="rgb(117,117,117)" x="16" y="13.421875" style="font-family: Roboto; font-weight: 400; font-stretch: 100%; font-size: 12px;">Berufsmaturität²</tspan></text><text transform="translate(0, 97.21875)"><tspan fill="rgb(117,117,117)" x="16" y="13.421875" style="font-family: Roboto; font-weight: 400; font-stretch: 100%; font-size: 12px;">Allgemeinbildende</tspan><tspan fill="rgb(117,117,117)" dx="2.984375" style="font-family: Roboto; font-weight: 400; font-stretch: 100%; font-size: 12px;">Ausbildungen</tspan></text><text transform="translate(207.390625, 97.21875)"><tspan fill="rgb(117,117,117)" x="16" y="13.421875" style="font-family: Roboto; font-weight: 400; font-stretch: 100%; font-size: 12px;">Zusatzausbildungen</tspan><tspan fill="rgb(117,117,117)" dx="2.984375" style="font-family: Roboto; font-weight: 400; font-stretch: 100%; font-size: 12px;">Sekundarstufe II</tspan></text><g id="grid-container-svg" transform="translate(44.04688, 156.4375)"><g id="grid-svg"><g id="x-grid-lines-svg grid-x-svg datawrapper-W9bTv-y8bxha-svg"><line x1="0" x2="0" y1="583" y2="0" transform="translate(110.76597, 0)" style="fill: none; stroke-width: 1; stroke-linejoin: miter; stroke-linecap: butt; stroke: rgb(117, 117, 117);"/><line x1="0" x2="0" y1="583" y2="0" transform="translate(221.53194, 0)" style="fill: none; stroke-width: 1; stroke-linejoin: miter; stroke-linecap: butt; stroke: rgb(117, 117, 117);"/><line x1="0" x2="0" y1="583" y2="0" transform="translate(332.2979, 0)" style="fill: none; stroke-width: 1; stroke-linejoin: miter; stroke-linecap: butt; stroke: rgb(117, 117, 117);"/><line x1="0" x2="0" y1="583" y2="0" transform="translate(443.06387, 0)" style="fill: none; stroke-width: 1; stroke-linejoin: miter; stroke-linecap: butt; stroke: rgb(117, 117, 117);"/><line x1="0" x2="0" y1="583" y2="0" transform="translate(553.82984, 0)" style="fill: none; stroke-width: 1; stroke-linejoin: miter; stroke-linecap: butt; stroke: rgb(117, 117, 117);"/></g></g></g><text transform="translate(32.046875, 167.734375)" style="text-anchor: end;"><tspan fill="rgb(51,51,51)" x="0" y="12" style="font-family: Roboto; font-weight: 700; font-stretch: 100%; font-size: 12px;">CH</tspan></text><rect width="26.09375" height="17" transform="translate(44.046875, 166.4375)" fill="rgb(205,53,171)" style="fill: rgb(205, 53, 171);"/><path d="M 70.640625 166.4375 v 17" style="fill: none; stroke-width: 1; stroke: rgb(255, 255, 255);"/><rect width="322.953125" height="17" transform="translate(70.625, 166.4375)" fill="rgb(0,162,185)" style="fill: rgb(0, 162, 185);"/><path d="M 394.078125 166.4375 v 17" style="fill: none; stroke-width: 1; stroke: rgb(255, 255, 255);"/><rect width="15.578125" height="17" transform="translate(394.0625, 166.4375)" fill="rgb(79,37,210)" style="fill: rgb(79, 37, 210);"/><path d="M 410.140625 166.4375 v 17" style="fill: none; stroke-width: 1; stroke: rgb(255, 255, 255);"/><rect width="162.890625" height="17" transform="translate(410.125, 166.4375)" fill="rgb(245,106,0)" style="fill: rgb(245, 106, 0);"/><path d="M 573.515625 166.4375 v 17" style="fill: none; stroke-width: 1; stroke: rgb(255, 255, 255);"/><rect width="24.390625" height="17" transform="translate(573.5, 166.4375)" fill="rgb(163,50,222)" style="fill: rgb(163, 50, 222);"/><text transform="translate(32.046875, 188.734375)" style="text-anchor: end;"><tspan fill="rgb(51,51,51)" x="0" y="12" style="font-family: Roboto; font-weight: 400; font-stretch: 100%; font-size: 12px;">ZH</tspan></text><rect width="24.984375" height="17" transform="translate(44.046875, 187.4375)" fill="rgb(205,53,171)" style="fill: rgb(205, 53, 171);"/><path d="M 69.53125 187.4375 v 17" style="fill: none; stroke-width: 1; stroke: rgb(255, 255, 255);"/><rect width="347.328125" height="17" transform="translate(69.515625, 187.4375)" fill="rgb(0,162,185)" style="fill: rgb(0, 162, 185);"/><path d="M 417.34375 187.4375 v 17" style="fill: none; stroke-width: 1; stroke: rgb(255, 255, 255);"/><rect width="24.4375" height="17" transform="translate(417.328125, 187.4375)" fill="rgb(79,37,210)" style="fill: rgb(79, 37, 210);"/><path d="M 442.265625 187.4375 v 17" style="fill: none; stroke-width: 1; stroke: rgb(255, 255, 255);"/><rect width="124.125" height="17" transform="translate(442.25, 187.4375)" fill="rgb(245,106,0)" style="fill: rgb(245, 106, 0);"/><path d="M 566.875 187.4375 v 17" style="fill: none; stroke-width: 1; stroke: rgb(255, 255, 255);"/><rect width="31.03125" height="17" transform="translate(566.859375, 187.4375)" fill="rgb(163,50,222)" style="fill: rgb(163, 50, 222);"/><text transform="translate(32.046875, 209.734375)" style="text-anchor: end;"><tspan fill="rgb(51,51,51)" x="0" y="12" style="font-family: Roboto; font-weight: 400; font-stretch: 100%; font-size: 12px;">BE</tspan></text><rect width="24.984375" height="17" transform="translate(44.046875, 208.4375)" fill="rgb(205,53,171)" style="fill: rgb(205, 53, 171);"/><path d="M 69.53125 208.4375 v 17" style="fill: none; stroke-width: 1; stroke: rgb(255, 255, 255);"/><rect width="368.359375" height="17" transform="translate(69.515625, 208.4375)" fill="rgb(0,162,185)" style="fill: rgb(0, 162, 185);"/><path d="M 438.375 208.4375 v 17" style="fill: none; stroke-width: 1; stroke: rgb(255, 255, 255);"/><rect width="21.125" height="17" transform="translate(438.359375, 208.4375)" fill="rgb(79,37,210)" style="fill: rgb(79, 37, 210);"/><path d="M 459.984375 208.4375 v 17" style="fill: none; stroke-width: 1; stroke: rgb(255, 255, 255);"/><rect width="111.390625" height="17" transform="translate(459.96875, 208.4375)" fill="rgb(245,106,0)" style="fill: rgb(245, 106, 0);"/><path d="M 571.859375 208.4375 v 17" style="fill: none; stroke-width: 1; stroke: rgb(255, 255, 255);"/><rect width="26.046875" height="17" transform="translate(571.84375, 208.4375)" fill="rgb(163,50,222)" style="fill: rgb(163, 50, 222);"/><text transform="translate(32.046875, 230.734375)" style="text-anchor: end;"><tspan fill="rgb(51,51,51)" x="0" y="12" style="font-family: Roboto; font-weight: 400; font-stretch: 100%; font-size: 12px;">LU</tspan></text><rect width="17.234375" height="17" transform="translate(44.046875, 229.4375)" fill="rgb(205,53,171)" style="fill: rgb(205, 53, 171);"/><path d="M 61.78125 229.4375 v 17" style="fill: none; stroke-width: 1; stroke: rgb(255, 255, 255);"/><rect width="370.03125" height="17" transform="translate(61.765625, 229.4375)" fill="rgb(0,162,185)" style="fill: rgb(0, 162, 185);"/><path d="M 432.296875 229.4375 v 17" style="fill: none; stroke-width: 1; stroke: rgb(255, 255, 255);"/><rect width="15.015625" height="17" transform="translate(432.28125, 229.4375)" fill="rgb(79,37,210)" style="fill: rgb(79, 37, 210);"/><path d="M 447.796875 229.4375 v 17" style="fill: none; stroke-width: 1; stroke: rgb(255, 255, 255);"/><rect width="103.078125" height="17" transform="translate(447.78125, 229.4375)" fill="rgb(245,106,0)" style="fill: rgb(245, 106, 0);"/><path d="M 551.359375 229.4375 v 17" style="fill: none; stroke-width: 1; stroke: rgb(255, 255, 255);"/><rect width="46.546875" height="17" transform="translate(551.34375, 229.4375)" fill="rgb(163,50,222)" style="fill: rgb(163, 50, 222);"/><text transform="translate(32.046875, 251.734375)" style="text-anchor: end;"><tspan fill="rgb(51,51,51)" x="0" y="12" style="font-family: Roboto; font-weight: 400; font-stretch: 100%; font-size: 12px;">UR</tspan></text><rect width="16.125" height="17" transform="translate(44.046875, 250.4375)" fill="rgb(205,53,171)" style="fill: rgb(205, 53, 171);"/><path d="M 60.671875 250.4375 v 17" style="fill: none; stroke-width: 1; stroke: rgb(255, 255, 255);"/><rect width="427.0625" height="17" transform="translate(60.65625, 250.4375)" fill="rgb(0,162,185)" style="fill: rgb(0, 162, 185);"/><path d="M 488.21875 250.4375 v 17" style="fill: none; stroke-width: 1; stroke: rgb(255, 255, 255);"/><rect width="13.921875" height="17" transform="translate(488.203125, 250.4375)" fill="rgb(79,37,210)" style="fill: rgb(79, 37, 210);"/><path d="M 502.625 250.4375 v 17" style="fill: none; stroke-width: 1; stroke: rgb(255, 255, 255);"/><rect width="73.171875" height="17" transform="translate(502.609375, 250.4375)" fill="rgb(245,106,0)" style="fill: rgb(245, 106, 0);"/><path d="M 576.28125 250.4375 v 17" style="fill: none; stroke-width: 1; stroke: rgb(255, 255, 255);"/><rect width="22.171875" height="17" transform="translate(576.265625, 250.4375)" fill="rgb(163,50,222)" style="fill: rgb(163, 50, 222);"/><text transform="translate(32.046875, 272.734375)" style="text-anchor: end;"><tspan fill="rgb(51,51,51)" x="0" y="12" style="font-family: Roboto; font-weight: 400; font-stretch: 100%; font-size: 12px;">SZ</tspan></text><rect width="20.546875" height="17" transform="translate(44.046875, 271.4375)" fill="rgb(205,53,171)" style="fill: rgb(205, 53, 171);"/><path d="M 65.09375 271.4375 v 17" style="fill: none; stroke-width: 1; stroke: rgb(255, 255, 255);"/><rect width="373.90625" height="17" transform="translate(65.078125, 271.4375)" fill="rgb(0,162,185)" style="fill: rgb(0, 162, 185);"/><path d="M 439.484375 271.4375 v 17" style="fill: none; stroke-width: 1; stroke: rgb(255, 255, 255);"/><rect width="15.03125" height="17" transform="translate(439.46875, 271.4375)" fill="rgb(79,37,210)" style="fill: rgb(79, 37, 210);"/><path d="M 455 271.4375 v 17" style="fill: none; stroke-width: 1; stroke: rgb(255, 255, 255);"/><rect width="113.59375" height="17" transform="translate(454.984375, 271.4375)" fill="rgb(245,106,0)" style="fill: rgb(245, 106, 0);"/><path d="M 569.078125 271.4375 v 17" style="fill: none; stroke-width: 1; stroke: rgb(255, 255, 255);"/><rect width="29.375" height="17" transform="translate(569.0625, 271.4375)" fill="rgb(163,50,222)" style="fill: rgb(163, 50, 222);"/><text transform="translate(32.046875, 293.734375)" style="text-anchor: end;"><tspan fill="rgb(51,51,51)" x="0" y="12" style="font-family: Roboto; font-weight: 400; font-stretch: 100%; font-size: 12px;">OW</tspan></text><rect width="8.921875" height="17" transform="translate(44.046875, 292.4375)" fill="rgb(205,53,171)" style="fill: rgb(205, 53, 171);"/><path d="M 53.46875 292.4375 v 17" style="fill: none; stroke-width: 1; stroke: rgb(255, 255, 255);"/><rect width="405.46875" height="17" transform="translate(53.453125, 292.4375)" fill="rgb(0,162,185)" style="fill: rgb(0, 162, 185);"/><path d="M 459.421875 292.4375 v 17" style="fill: none; stroke-width: 1; stroke: rgb(255, 255, 255);"/><rect width="17.796875" height="17" transform="translate(459.40625, 292.4375)" fill="rgb(79,37,210)" style="fill: rgb(79, 37, 210);"/><path d="M 477.703125 292.4375 v 17" style="fill: none; stroke-width: 1; stroke: rgb(255, 255, 255);"/><rect width="85.90625" height="17" transform="translate(477.6875, 292.4375)" fill="rgb(245,106,0)" style="fill: rgb(245, 106, 0);"/><path d="M 564.09375 292.4375 v 17" style="fill: none; stroke-width: 1; stroke: rgb(255, 255, 255);"/><rect width="34.359375" height="17" transform="translate(564.078125, 292.4375)" fill="rgb(163,50,222)" style="fill: rgb(163, 50, 222);"/><text transform="translate(32.046875, 314.734375)" style="text-anchor: end;"><tspan fill="rgb(51,51,51)" x="0" y="12" style="font-family: Roboto; font-weight: 400; font-stretch: 100%; font-size: 12px;">NW</tspan></text><rect width="12.796875" height="17" transform="translate(44.046875, 313.4375)" fill="rgb(205,53,171)" style="fill: rgb(205, 53, 171);"/><path d="M 57.34375 313.4375 v 17" style="fill: none; stroke-width: 1; stroke: rgb(255, 255, 255);"/><rect width="384.984375" height="17" transform="translate(57.328125, 313.4375)" fill="rgb(0,162,185)" style="fill: rgb(0, 162, 185);"/><path d="M 442.8125 313.4375 v 17" style="fill: none; stroke-width: 1; stroke: rgb(255, 255, 255);"/><rect width="17.796875" height="17" transform="translate(442.796875, 313.4375)" fill="rgb(79,37,210)" style="fill: rgb(79, 37, 210);"/><path d="M 461.09375 313.4375 v 17" style="fill: none; stroke-width: 1; stroke: rgb(255, 255, 255);"/><rect width="101.96875" height="17" transform="translate(461.078125, 313.4375)" fill="rgb(245,106,0)" style="fill: rgb(245, 106, 0);"/><path d="M 563.546875 313.4375 v 17" style="fill: none; stroke-width: 1; stroke: rgb(255, 255, 255);"/><rect width="33.796875" height="17" transform="translate(563.53125, 313.4375)" fill="rgb(163,50,222)" style="fill: rgb(163, 50, 222);"/><text transform="translate(32.046875, 335.734375)" style="text-anchor: end;"><tspan fill="rgb(51,51,51)" x="0" y="12" style="font-family: Roboto; font-weight: 400; font-stretch: 100%; font-size: 12px;">GL</tspan></text><rect width="29.421875" height="17" transform="translate(44.046875, 334.4375)" fill="rgb(205,53,171)" style="fill: rgb(205, 53, 171);"/><path d="M 73.96875 334.4375 v 17" style="fill: none; stroke-width: 1; stroke: rgb(255, 255, 255);"/><rect width="382.203125" height="17" transform="translate(73.953125, 334.4375)" fill="rgb(0,162,185)" style="fill: rgb(0, 162, 185);"/><path d="M 456.65625 334.4375 v 17" style="fill: none; stroke-width: 1; stroke: rgb(255, 255, 255);"/><rect width="17.796875" height="17" transform="translate(456.640625, 334.4375)" fill="rgb(79,37,210)" style="fill: rgb(79, 37, 210);"/><path d="M 474.9375 334.4375 v 17" style="fill: none; stroke-width: 1; stroke: rgb(255, 255, 255);"/><rect width="83.6875" height="17" transform="translate(474.921875, 334.4375)" fill="rgb(245,106,0)" style="fill: rgb(245, 106, 0);"/><path d="M 559.109375 334.4375 v 17" style="fill: none; stroke-width: 1; stroke: rgb(255, 255, 255);"/><rect width="38.796875" height="17" transform="translate(559.09375, 334.4375)" fill="rgb(163,50,222)" style="fill: rgb(163, 50, 222);"/><text transform="translate(32.046875, 356.734375)" style="text-anchor: end;"><tspan fill="rgb(51,51,51)" x="0" y="12" style="font-family: Roboto; font-weight: 400; font-stretch: 100%; font-size: 12px;">ZG</tspan></text><rect width="15.5625" height="17" transform="translate(44.046875, 355.4375)" fill="rgb(205,53,171)" style="fill: rgb(205, 53, 171);"/><path d="M 60.109375 355.4375 v 17" style="fill: none; stroke-width: 1; stroke: rgb(255, 255, 255);"/><rect width="294.15625" height="17" transform="translate(60.09375, 355.4375)" fill="rgb(0,162,185)" style="fill: rgb(0, 162, 185);"/><path d="M 354.75 355.4375 v 17" style="fill: none; stroke-width: 1; stroke: rgb(255, 255, 255);"/><rect width="17.796875" height="17" transform="translate(354.734375, 355.4375)" fill="rgb(79,37,210)" style="fill: rgb(79, 37, 210);"/><path d="M 373.03125 355.4375 v 17" style="fill: none; stroke-width: 1; stroke: rgb(255, 255, 255);"/><rect width="184.5" height="17" transform="translate(373.015625, 355.4375)" fill="rgb(245,106,0)" style="fill: rgb(245, 106, 0);"/><path d="M 558.015625 355.4375 v 17" style="fill: none; stroke-width: 1; stroke: rgb(255, 255, 255);"/><rect width="39.890625" height="17" transform="translate(558, 355.4375)" fill="rgb(163,50,222)" style="fill: rgb(163, 50, 222);"/><text transform="translate(32.046875, 377.734375)" style="text-anchor: end;"><tspan fill="rgb(51,51,51)" x="0" y="12" style="font-family: Roboto; font-weight: 400; font-stretch: 100%; font-size: 12px;">FR</tspan></text><rect width="16.125" height="17" transform="translate(44.046875, 376.4375)" fill="rgb(205,53,171)" style="fill: rgb(205, 53, 171);"/><path d="M 60.671875 376.4375 v 17" style="fill: none; stroke-width: 1; stroke: rgb(255, 255, 255);"/><rect width="298.03125" height="17" transform="translate(60.65625, 376.4375)" fill="rgb(0,162,185)" style="fill: rgb(0, 162, 185);"/><path d="M 359.1875 376.4375 v 17" style="fill: none; stroke-width: 1; stroke: rgb(255, 255, 255);"/><rect width="11.140625" height="17" transform="translate(359.171875, 376.4375)" fill="rgb(79,37,210)" style="fill: rgb(79, 37, 210);"/><path d="M 370.8125 376.4375 v 17" style="fill: none; stroke-width: 1; stroke: rgb(255, 255, 255);"/><rect width="210.53125" height="17" transform="translate(370.796875, 376.4375)" fill="rgb(245,106,0)" style="fill: rgb(245, 106, 0);"/><path d="M 581.828125 376.4375 v 17" style="fill: none; stroke-width: 1; stroke: rgb(255, 255, 255);"/><rect width="16.078125" height="17" transform="translate(581.8125, 376.4375)" fill="rgb(163,50,222)" style="fill: rgb(163, 50, 222);"/><text transform="translate(32.046875, 398.734375)" style="text-anchor: end;"><tspan fill="rgb(51,51,51)" x="0" y="12" style="font-family: Roboto; font-weight: 400; font-stretch: 100%; font-size: 12px;">SO</tspan></text><rect width="18.34375" height="17" transform="translate(44.046875, 397.4375)" fill="rgb(205,53,171)" style="fill: rgb(205, 53, 171);"/><path d="M 62.890625 397.4375 v 17" style="fill: none; stroke-width: 1; stroke: rgb(255, 255, 255);"/><rect width="361.15625" height="17" transform="translate(62.875, 397.4375)" fill="rgb(0,162,185)" style="fill: rgb(0, 162, 185);"/><path d="M 424.53125 397.4375 v 17" style="fill: none; stroke-width: 1; stroke: rgb(255, 255, 255);"/><rect width="14.46875" height="17" transform="translate(424.515625, 397.4375)" fill="rgb(79,37,210)" style="fill: rgb(79, 37, 210);"/><path d="M 439.484375 397.4375 v 17" style="fill: none; stroke-width: 1; stroke: rgb(255, 255, 255);"/><rect width="125.796875" height="17" transform="translate(439.46875, 397.4375)" fill="rgb(245,106,0)" style="fill: rgb(245, 106, 0);"/><path d="M 565.765625 397.4375 v 17" style="fill: none; stroke-width: 1; stroke: rgb(255, 255, 255);"/><rect width="32.140625" height="17" transform="translate(565.75, 397.4375)" fill="rgb(163,50,222)" style="fill: rgb(163, 50, 222);"/><text transform="translate(32.046875, 419.734375)" style="text-anchor: end;"><tspan fill="rgb(51,51,51)" x="0" y="12" style="font-family: Roboto; font-weight: 400; font-stretch: 100%; font-size: 12px;">BS</tspan></text><rect width="44.921875" height="17" transform="translate(44.046875, 418.4375)" fill="rgb(205,53,171)" style="fill: rgb(205, 53, 171);"/><path d="M 89.46875 418.4375 v 17" style="fill: none; stroke-width: 1; stroke: rgb(255, 255, 255);"/><rect width="240.984375" height="17" transform="translate(89.453125, 418.4375)" fill="rgb(0,162,185)" style="fill: rgb(0, 162, 185);"/><path d="M 330.9375 418.4375 v 17" style="fill: none; stroke-width: 1; stroke: rgb(255, 255, 255);"/><rect width="8.375" height="17" transform="translate(330.921875, 418.4375)" fill="rgb(79,37,210)" style="fill: rgb(79, 37, 210);"/><path d="M 339.796875 418.4375 v 17" style="fill: none; stroke-width: 1; stroke: rgb(255, 255, 255);"/><rect width="232.125" height="17" transform="translate(339.78125, 418.4375)" fill="rgb(245,106,0)" style="fill: rgb(245, 106, 0);"/><path d="M 572.40625 418.4375 v 17" style="fill: none; stroke-width: 1; stroke: rgb(255, 255, 255);"/><rect width="24.9375" height="17" transform="translate(572.390625, 418.4375)" fill="rgb(163,50,222)" style="fill: rgb(163, 50, 222);"/><text transform="translate(32.046875, 440.734375)" style="text-anchor: end;"><tspan fill="rgb(51,51,51)" x="0" y="12" style="font-family: Roboto; font-weight: 400; font-stretch: 100%; font-size: 12px;">BL</tspan></text><rect width="18.890625" height="17" transform="translate(44.046875, 439.4375)" fill="rgb(205,53,171)" style="fill: rgb(205, 53, 171);"/><path d="M 63.4375 439.4375 v 17" style="fill: none; stroke-width: 1; stroke: rgb(255, 255, 255);"/><rect width="297.484375" height="17" transform="translate(63.421875, 439.4375)" fill="rgb(0,162,185)" style="fill: rgb(0, 162, 185);"/><path d="M 361.40625 439.4375 v 17" style="fill: none; stroke-width: 1; stroke: rgb(255, 255, 255);"/><rect width="12.25" height="17" transform="translate(361.390625, 439.4375)" fill="rgb(79,37,210)" style="fill: rgb(79, 37, 210);"/><path d="M 374.140625 439.4375 v 17" style="fill: none; stroke-width: 1; stroke: rgb(255, 255, 255);"/><rect width="200" height="17" transform="translate(374.125, 439.4375)" fill="rgb(245,106,0)" style="fill: rgb(245, 106, 0);"/><path d="M 574.625 439.4375 v 17" style="fill: none; stroke-width: 1; stroke: rgb(255, 255, 255);"/><rect width="23.828125" height="17" transform="translate(574.609375, 439.4375)" fill="rgb(163,50,222)" style="fill: rgb(163, 50, 222);"/><text transform="translate(32.046875, 461.734375)" style="text-anchor: end;"><tspan fill="rgb(51,51,51)" x="0" y="12" style="font-family: Roboto; font-weight: 400; font-stretch: 100%; font-size: 12px;">SH</tspan></text><rect width="28.3125" height="17" transform="translate(44.046875, 460.4375)" fill="rgb(205,53,171)" style="fill: rgb(205, 53, 171);"/><path d="M 72.859375 460.4375 v 17" style="fill: none; stroke-width: 1; stroke: rgb(255, 255, 255);"/><rect width="386.640625" height="17" transform="translate(72.84375, 460.4375)" fill="rgb(0,162,185)" style="fill: rgb(0, 162, 185);"/><path d="M 459.984375 460.4375 v 17" style="fill: none; stroke-width: 1; stroke: rgb(255, 255, 255);"/><rect width="18.890625" height="17" transform="translate(459.96875, 460.4375)" fill="rgb(79,37,210)" style="fill: rgb(79, 37, 210);"/><path d="M 479.359375 460.4375 v 17" style="fill: none; stroke-width: 1; stroke: rgb(255, 255, 255);"/><rect width="95.890625" height="17" transform="translate(479.34375, 460.4375)" fill="rgb(245,106,0)" style="fill: rgb(245, 106, 0);"/><path d="M 575.734375 460.4375 v 17" style="fill: none; stroke-width: 1; stroke: rgb(255, 255, 255);"/><rect width="22.171875" height="17" transform="translate(575.71875, 460.4375)" fill="rgb(163,50,222)" style="fill: rgb(163, 50, 222);"/><text transform="translate(32.046875, 482.734375)" style="text-anchor: end;"><tspan fill="rgb(51,51,51)" x="0" y="12" style="font-family: Roboto; font-weight: 400; font-stretch: 100%; font-size: 12px;">AR</tspan></text><rect width="16.125" height="17" transform="translate(44.046875, 481.4375)" fill="rgb(205,53,171)" style="fill: rgb(205, 53, 171);"/><path d="M 60.671875 481.4375 v 17" style="fill: none; stroke-width: 1; stroke: rgb(255, 255, 255);"/><rect width="396.0625" height="17" transform="translate(60.65625, 481.4375)" fill="rgb(0,162,185)" style="fill: rgb(0, 162, 185);"/><path d="M 457.21875 481.4375 v 17" style="fill: none; stroke-width: 1; stroke: rgb(255, 255, 255);"/><rect width="14.46875" height="17" transform="translate(457.203125, 481.4375)" fill="rgb(79,37,210)" style="fill: rgb(79, 37, 210);"/><path d="M 472.171875 481.4375 v 17" style="fill: none; stroke-width: 1; stroke: rgb(255, 255, 255);"/><rect width="104.734375" height="17" transform="translate(472.15625, 481.4375)" fill="rgb(245,106,0)" style="fill: rgb(245, 106, 0);"/><path d="M 577.390625 481.4375 v 17" style="fill: none; stroke-width: 1; stroke: rgb(255, 255, 255);"/><rect width="20.515625" height="17" transform="translate(577.375, 481.4375)" fill="rgb(163,50,222)" style="fill: rgb(163, 50, 222);"/><text transform="translate(32.046875, 503.734375)" style="text-anchor: end;"><tspan fill="rgb(51,51,51)" x="0" y="12" style="font-family: Roboto; font-weight: 400; font-stretch: 100%; font-size: 12px;">AI</tspan></text><rect width="5.046875" height="17" transform="translate(44.046875, 502.4375)" fill="rgb(205,53,171)" style="fill: rgb(205, 53, 171);"/><path d="M 49.59375 502.4375 v 17" style="fill: none; stroke-width: 1; stroke: rgb(255, 255, 255);"/><rect width="419.875" height="17" transform="translate(49.578125, 502.4375)" fill="rgb(0,162,185)" style="fill: rgb(0, 162, 185);"/><path d="M 469.953125 502.4375 v 17" style="fill: none; stroke-width: 1; stroke: rgb(255, 255, 255);"/><rect width="17.234375" height="17" transform="translate(469.9375, 502.4375)" fill="rgb(79,37,210)" style="fill: rgb(79, 37, 210);"/><path d="M 487.671875 502.4375 v 17" style="fill: none; stroke-width: 1; stroke: rgb(255, 255, 255);"/><rect width="92.5625" height="17" transform="translate(487.65625, 502.4375)" fill="rgb(245,106,0)" style="fill: rgb(245, 106, 0);"/><path d="M 580.71875 502.4375 v 17" style="fill: none; stroke-width: 1; stroke: rgb(255, 255, 255);"/><rect width="17.734375" height="17" transform="translate(580.703125, 502.4375)" fill="rgb(163,50,222)" style="fill: rgb(163, 50, 222);"/><text transform="translate(32.046875, 524.734375)" style="text-anchor: end;"><tspan fill="rgb(51,51,51)" x="0" y="12" style="font-family: Roboto; font-weight: 400; font-stretch: 100%; font-size: 12px;">SG</tspan></text><rect width="20" height="17" transform="translate(44.046875, 523.4375)" fill="rgb(205,53,171)" style="fill: rgb(205, 53, 171);"/><path d="M 64.546875 523.4375 v 17" style="fill: none; stroke-width: 1; stroke: rgb(255, 255, 255);"/><rect width="389.40625" height="17" transform="translate(64.53125, 523.4375)" fill="rgb(0,162,185)" style="fill: rgb(0, 162, 185);"/><path d="M 454.4375 523.4375 v 17" style="fill: none; stroke-width: 1; stroke: rgb(255, 255, 255);"/><rect width="18.34375" height="17" transform="translate(454.421875, 523.4375)" fill="rgb(79,37,210)" style="fill: rgb(79, 37, 210);"/><path d="M 473.265625 523.4375 v 17" style="fill: none; stroke-width: 1; stroke: rgb(255, 255, 255);"/><rect width="97.546875" height="17" transform="translate(473.25, 523.4375)" fill="rgb(245,106,0)" style="fill: rgb(245, 106, 0);"/><path d="M 571.296875 523.4375 v 17" style="fill: none; stroke-width: 1; stroke: rgb(255, 255, 255);"/><rect width="27.15625" height="17" transform="translate(571.28125, 523.4375)" fill="rgb(163,50,222)" style="fill: rgb(163, 50, 222);"/><text transform="translate(32.046875, 545.734375)" style="text-anchor: end;"><tspan fill="rgb(51,51,51)" x="0" y="12" style="font-family: Roboto; font-weight: 400; font-stretch: 100%; font-size: 12px;">GR</tspan></text><rect width="15.015625" height="17" transform="translate(44.046875, 544.4375)" fill="rgb(205,53,171)" style="fill: rgb(205, 53, 171);"/><path d="M 59.5625 544.4375 v 17" style="fill: none; stroke-width: 1; stroke: rgb(255, 255, 255);"/><rect width="380" height="17" transform="translate(59.546875, 544.4375)" fill="rgb(0,162,185)" style="fill: rgb(0, 162, 185);"/><path d="M 440.046875 544.4375 v 17" style="fill: none; stroke-width: 1; stroke: rgb(255, 255, 255);"/><rect width="20" height="17" transform="translate(440.03125, 544.4375)" fill="rgb(79,37,210)" style="fill: rgb(79, 37, 210);"/><path d="M 460.53125 544.4375 v 17" style="fill: none; stroke-width: 1; stroke: rgb(255, 255, 255);"/><rect width="108.0625" height="17" transform="translate(460.515625, 544.4375)" fill="rgb(245,106,0)" style="fill: rgb(245, 106, 0);"/><path d="M 569.078125 544.4375 v 17" style="fill: none; stroke-width: 1; stroke: rgb(255, 255, 255);"/><rect width="28.828125" height="17" transform="translate(569.0625, 544.4375)" fill="rgb(163,50,222)" style="fill: rgb(163, 50, 222);"/><text transform="translate(32.046875, 566.734375)" style="text-anchor: end;"><tspan fill="rgb(51,51,51)" x="0" y="12" style="font-family: Roboto; font-weight: 400; font-stretch: 100%; font-size: 12px;">AG</tspan></text><rect width="21.109375" height="17" transform="translate(44.046875, 565.4375)" fill="rgb(205,53,171)" style="fill: rgb(205, 53, 171);"/><path d="M 65.65625 565.4375 v 17" style="fill: none; stroke-width: 1; stroke: rgb(255, 255, 255);"/><rect width="353.96875" height="17" transform="translate(65.640625, 565.4375)" fill="rgb(0,162,185)" style="fill: rgb(0, 162, 185);"/><path d="M 420.109375 565.4375 v 17" style="fill: none; stroke-width: 1; stroke: rgb(255, 255, 255);"/><rect width="15.578125" height="17" transform="translate(420.09375, 565.4375)" fill="rgb(79,37,210)" style="fill: rgb(79, 37, 210);"/><path d="M 436.171875 565.4375 v 17" style="fill: none; stroke-width: 1; stroke: rgb(255, 255, 255);"/><rect width="119.6875" height="17" transform="translate(436.15625, 565.4375)" fill="rgb(245,106,0)" style="fill: rgb(245, 106, 0);"/><path d="M 556.34375 565.4375 v 17" style="fill: none; stroke-width: 1; stroke: rgb(255, 255, 255);"/><rect width="42.65625" height="17" transform="translate(556.328125, 565.4375)" fill="rgb(163,50,222)" style="fill: rgb(163, 50, 222);"/><text transform="translate(32.046875, 587.734375)" style="text-anchor: end;"><tspan fill="rgb(51,51,51)" x="0" y="12" style="font-family: Roboto; font-weight: 400; font-stretch: 100%; font-size: 12px;">TG</tspan></text><rect width="12.796875" height="17" transform="translate(44.046875, 586.4375)" fill="rgb(205,53,171)" style="fill: rgb(205, 53, 171);"/><path d="M 57.34375 586.4375 v 17" style="fill: none; stroke-width: 1; stroke: rgb(255, 255, 255);"/><rect width="386.09375" height="17" transform="translate(57.328125, 586.4375)" fill="rgb(0,162,185)" style="fill: rgb(0, 162, 185);"/><path d="M 443.921875 586.4375 v 17" style="fill: none; stroke-width: 1; stroke: rgb(255, 255, 255);"/><rect width="23.328125" height="17" transform="translate(443.90625, 586.4375)" fill="rgb(79,37,210)" style="fill: rgb(79, 37, 210);"/><path d="M 467.734375 586.4375 v 17" style="fill: none; stroke-width: 1; stroke: rgb(255, 255, 255);"/><rect width="100.3125" height="17" transform="translate(467.71875, 586.4375)" fill="rgb(245,106,0)" style="fill: rgb(245, 106, 0);"/><path d="M 568.53125 586.4375 v 17" style="fill: none; stroke-width: 1; stroke: rgb(255, 255, 255);"/><rect width="29.921875" height="17" transform="translate(568.515625, 586.4375)" fill="rgb(163,50,222)" style="fill: rgb(163, 50, 222);"/><text transform="translate(32.046875, 608.734375)" style="text-anchor: end;"><tspan fill="rgb(51,51,51)" x="0" y="12" style="font-family: Roboto; font-weight: 400; font-stretch: 100%; font-size: 12px;">TI</tspan></text><rect width="23.875" height="17" transform="translate(44.046875, 607.4375)" fill="rgb(205,53,171)" style="fill: rgb(205, 53, 171);"/><path d="M 68.421875 607.4375 v 17" style="fill: none; stroke-width: 1; stroke: rgb(255, 255, 255);"/><rect width="281.421875" height="17" transform="translate(68.40625, 607.4375)" fill="rgb(0,162,185)" style="fill: rgb(0, 162, 185);"/><path d="M 350.328125 607.4375 v 17" style="fill: none; stroke-width: 1; stroke: rgb(255, 255, 255);"/><rect width="7.8125" height="17" transform="translate(350.3125, 607.4375)" fill="rgb(79,37,210)" style="fill: rgb(79, 37, 210);"/><path d="M 358.625 607.4375 v 17" style="fill: none; stroke-width: 1; stroke: rgb(255, 255, 255);"/><rect width="223.828125" height="17" transform="translate(358.609375, 607.4375)" fill="rgb(245,106,0)" style="fill: rgb(245, 106, 0);"/><path d="M 582.9375 607.4375 v 17" style="fill: none; stroke-width: 1; stroke: rgb(255, 255, 255);"/><rect width="14.96875" height="17" transform="translate(582.921875, 607.4375)" fill="rgb(163,50,222)" style="fill: rgb(163, 50, 222);"/><text transform="translate(32.046875, 629.734375)" style="text-anchor: end;"><tspan fill="rgb(51,51,51)" x="0" y="12" style="font-family: Roboto; font-weight: 400; font-stretch: 100%; font-size: 12px;">VD</tspan></text><rect width="38.28125" height="17" transform="translate(44.046875, 628.4375)" fill="rgb(205,53,171)" style="fill: rgb(205, 53, 171);"/><path d="M 82.828125 628.4375 v 17" style="fill: none; stroke-width: 1; stroke: rgb(255, 255, 255);"/><rect width="245.40625" height="17" transform="translate(82.8125, 628.4375)" fill="rgb(0,162,185)" style="fill: rgb(0, 162, 185);"/><path d="M 328.71875 628.4375 v 17" style="fill: none; stroke-width: 1; stroke: rgb(255, 255, 255);"/><rect width="8.9375" height="17" transform="translate(328.703125, 628.4375)" fill="rgb(79,37,210)" style="fill: rgb(79, 37, 210);"/><path d="M 338.140625 628.4375 v 17" style="fill: none; stroke-width: 1; stroke: rgb(255, 255, 255);"/><rect width="250.953125" height="17" transform="translate(338.125, 628.4375)" fill="rgb(245,106,0)" style="fill: rgb(245, 106, 0);"/><path d="M 589.578125 628.4375 v 17" style="fill: none; stroke-width: 1; stroke: rgb(255, 255, 255);"/><rect width="8.328125" height="17" transform="translate(589.5625, 628.4375)" fill="rgb(163,50,222)" style="fill: rgb(163, 50, 222);"/><text transform="translate(32.046875, 650.734375)" style="text-anchor: end;"><tspan fill="rgb(51,51,51)" x="0" y="12" style="font-family: Roboto; font-weight: 400; font-stretch: 100%; font-size: 12px;">VS</tspan></text><rect width="38.28125" height="17" transform="translate(44.046875, 649.4375)" fill="rgb(205,53,171)" style="fill: rgb(205, 53, 171);"/><path d="M 82.828125 649.4375 v 17" style="fill: none; stroke-width: 1; stroke: rgb(255, 255, 255);"/><rect width="306.328125" height="17" transform="translate(82.8125, 649.4375)" fill="rgb(0,162,185)" style="fill: rgb(0, 162, 185);"/><path d="M 389.640625 649.4375 v 17" style="fill: none; stroke-width: 1; stroke: rgb(255, 255, 255);"/><rect width="10.046875" height="17" transform="translate(389.625, 649.4375)" fill="rgb(79,37,210)" style="fill: rgb(79, 37, 210);"/><path d="M 400.171875 649.4375 v 17" style="fill: none; stroke-width: 1; stroke: rgb(255, 255, 255);"/><rect width="188.359375" height="17" transform="translate(400.15625, 649.4375)" fill="rgb(245,106,0)" style="fill: rgb(245, 106, 0);"/><path d="M 589.015625 649.4375 v 17" style="fill: none; stroke-width: 1; stroke: rgb(255, 255, 255);"/><rect width="8.328125" height="17" transform="translate(589, 649.4375)" fill="rgb(163,50,222)" style="fill: rgb(163, 50, 222);"/><text transform="translate(32.046875, 671.734375)" style="text-anchor: end;"><tspan fill="rgb(51,51,51)" x="0" y="12" style="font-family: Roboto; font-weight: 400; font-stretch: 100%; font-size: 12px;">NE</tspan></text><rect width="27.75" height="17" transform="translate(44.046875, 670.4375)" fill="rgb(205,53,171)" style="fill: rgb(205, 53, 171);"/><path d="M 72.296875 670.4375 v 17" style="fill: none; stroke-width: 1; stroke: rgb(255, 255, 255);"/><rect width="332.375" height="17" transform="translate(72.28125, 670.4375)" fill="rgb(0,162,185)" style="fill: rgb(0, 162, 185);"/><path d="M 405.15625 670.4375 v 17" style="fill: none; stroke-width: 1; stroke: rgb(255, 255, 255);"/><rect width="10.03125" height="17" transform="translate(405.140625, 670.4375)" fill="rgb(79,37,210)" style="fill: rgb(79, 37, 210);"/><path d="M 415.671875 670.4375 v 17" style="fill: none; stroke-width: 1; stroke: rgb(255, 255, 255);"/><rect width="167.875" height="17" transform="translate(415.65625, 670.4375)" fill="rgb(245,106,0)" style="fill: rgb(245, 106, 0);"/><path d="M 584.03125 670.4375 v 17" style="fill: none; stroke-width: 1; stroke: rgb(255, 255, 255);"/><rect width="13.3125" height="17" transform="translate(584.015625, 670.4375)" fill="rgb(163,50,222)" style="fill: rgb(163, 50, 222);"/><text transform="translate(32.046875, 692.734375)" style="text-anchor: end;"><tspan fill="rgb(51,51,51)" x="0" y="12" style="font-family: Roboto; font-weight: 400; font-stretch: 100%; font-size: 12px;">GE</tspan></text><rect width="49.359375" height="17" transform="translate(44.046875, 691.4375)" fill="rgb(205,53,171)" style="fill: rgb(205, 53, 171);"/><path d="M 93.90625 691.4375 v 17" style="fill: none; stroke-width: 1; stroke: rgb(255, 255, 255);"/><rect width="168.421875" height="17" transform="translate(93.890625, 691.4375)" fill="rgb(0,162,185)" style="fill: rgb(0, 162, 185);"/><path d="M 262.8125 691.4375 v 17" style="fill: none; stroke-width: 1; stroke: rgb(255, 255, 255);"/><rect width="6.171875" height="17" transform="translate(262.796875, 691.4375)" fill="rgb(79,37,210)" style="fill: rgb(79, 37, 210);"/><path d="M 269.46875 691.4375 v 17" style="fill: none; stroke-width: 1; stroke: rgb(255, 255, 255);"/><rect width="316.859375" height="17" transform="translate(269.453125, 691.4375)" fill="rgb(245,106,0)" style="fill: rgb(245, 106, 0);"/><path d="M 586.8125 691.4375 v 17" style="fill: none; stroke-width: 1; stroke: rgb(255, 255, 255);"/><rect width="11.09375" height="17" transform="translate(586.796875, 691.4375)" fill="rgb(163,50,222)" style="fill: rgb(163, 50, 222);"/><text transform="translate(32.046875, 713.734375)" style="text-anchor: end;"><tspan fill="rgb(51,51,51)" x="0" y="12" style="font-family: Roboto; font-weight: 400; font-stretch: 100%; font-size: 12px;">JU</tspan></text><rect width="23.875" height="17" transform="translate(44.046875, 712.4375)" fill="rgb(205,53,171)" style="fill: rgb(205, 53, 171);"/><path d="M 68.421875 712.4375 v 17" style="fill: none; stroke-width: 1; stroke: rgb(255, 255, 255);"/><rect width="370.578125" height="17" transform="translate(68.40625, 712.4375)" fill="rgb(0,162,185)" style="fill: rgb(0, 162, 185);"/><path d="M 439.484375 712.4375 v 17" style="fill: none; stroke-width: 1; stroke: rgb(255, 255, 255);"/><rect width="10.046875" height="17" transform="translate(439.46875, 712.4375)" fill="rgb(79,37,210)" style="fill: rgb(79, 37, 210);"/><path d="M 450.015625 712.4375 v 17" style="fill: none; stroke-width: 1; stroke: rgb(255, 255, 255);"/><rect width="142.40625" height="17" transform="translate(450, 712.4375)" fill="rgb(245,106,0)" style="fill: rgb(245, 106, 0);"/><path d="M 592.90625 712.4375 v 17" style="fill: none; stroke-width: 1; stroke: rgb(255, 255, 255);"/><rect width="5" height="17" transform="translate(592.890625, 712.4375)" fill="rgb(163,50,222)" style="fill: rgb(163, 50, 222);"/><g id="grid-container-svg" transform="translate(44.04688, 156.4375)"><g id="grid-svg"><g id="x-tick-labels-svg grid-x-svg number-axis-svg datawrapper-W9bTv-6boht-svg" transform="translate(0, -8)"><text transform="translate(-7.86914, 0) translate(7.869140625, 0)" style="text-anchor: middle;"><tspan fill="rgb(117, 117, 117)" style="font-family: Roboto; font-weight: 400; font-stretch: 100%; font-size: 12px;" x="0" dominant-baseline="auto" y="0">0%</tspan></text><text transform="translate(110.76597, 0) translate(-11.23828, 0) translate(11.23828125, 0)" style="text-anchor: middle;"><tspan fill="rgb(117, 117, 117)" style="font-family: Roboto; font-weight: 400; font-stretch: 100%; font-size: 12px;" x="0" dominant-baseline="auto" y="0">20%</tspan></text><text transform="translate(221.53194, 0) translate(-11.23827, 0) translate(11.238273620605469, 0)" style="text-anchor: middle;"><tspan fill="rgb(117, 117, 117)" style="font-family: Roboto; font-weight: 400; font-stretch: 100%; font-size: 12px;" x="0" dominant-baseline="auto" y="0">40%</tspan></text><text transform="translate(332.2979, 0) translate(-11.23828, 0) translate(11.23828125, 0)" style="text-anchor: middle;"><tspan fill="rgb(117, 117, 117)" style="font-family: Roboto; font-weight: 400; font-stretch: 100%; font-size: 12px;" x="0" dominant-baseline="auto" y="0">60%</tspan></text><text transform="translate(443.06387, 0) translate(-11.23828, 0) translate(11.23828125, 0)" style="text-anchor: middle;"><tspan fill="rgb(117, 117, 117)" style="font-family: Roboto; font-weight: 400; font-stretch: 100%; font-size: 12px;" x="0" dominant-baseline="auto" y="0">80%</tspan></text><text transform="translate(553.82984, 0) translate(-29.21484, 0) translate(29.21484375, 0)" style="text-anchor: end;"><tspan fill="rgb(117, 117, 117)" style="font-family: Roboto; font-weight: 400; font-stretch: 100%; font-size: 12px;" x="0" dominant-baseline="auto" y="0">100%</tspan></text></g><g id="x-base-lines-svg grid-x-svg datawrapper-W9bTv-l0t1pf-svg"><line x1="0" x2="0" y1="583" y2="0" style="fill: none; stroke-width: 1; stroke-linejoin: miter; stroke-linecap: butt; stroke: rgb(117, 117, 117);"/></g></g></g><rect width="8" height="8" transform="translate(0, 78.828125)" fill="rgb(205,53,171)" style="fill: rgb(205, 53, 171);"/><rect width="8" height="8" transform="translate(235.625, 78.828125)" fill="rgb(0,162,185)" style="fill: rgb(0, 162, 185);"/><rect width="8" height="8" transform="translate(401.015625, 78.828125)" fill="rgb(79,37,210)" style="fill: rgb(79, 37, 210);"/><rect width="8" height="8" transform="translate(0, 102.046875)" fill="rgb(245,106,0)" style="fill: rgb(245, 106, 0);"/><rect width="8" height="8" transform="translate(207.390625, 102.046875)" fill="rgb(163,50,222)" style="fill: rgb(163, 50, 222);"/></g><g id="above-footer-svg datawrapper-W9bTv-f9vec7-svg"><text transform="translate(0, 827)"><tspan fill="rgb(51,51,51)" x="0" y="13" style="font-family: Roboto; font-weight: 400; font-stretch: 100%; font-size: 12px;">¹ Inkl. Berufsmaturität während der beruflichen Grundbildung (BM1)</tspan><tspan fill="rgb(51,51,51)" x="0" y="29" style="font-family: Roboto; font-weight: 400; font-stretch: 100%; font-size: 12px;">² Berufsmaturität nach der beruflichen Grundbildung (BM2)</tspan><tspan fill="rgb(51,51,51)" x="0" y="61" style="font-family: Roboto; font-weight: 400; font-stretch: 100%; font-size: 12px;">Bermerkung: die Lernenden mit einem Wohnsitz im Ausland oder unbestimmt sind nicht berücksichtigt.</tspan></text></g><g id="footer-svg"><text transform="translate(0, 907)"><tspan fill="rgb(51,51,51)" x="229.875" y="13" style="font-family: Roboto; font-weight: 400; font-stretch: 100%; font-size: 12px;">Quelle</tspan><tspan fill="rgb(51,51,51)" style="font-family: Roboto; font-weight: 400; font-stretch: 100%; font-size: 12px;">:</tspan><tspan fill="rgb(51,51,51)" dx="2.984375" style="font-family: Roboto; font-weight: 400; font-stretch: 100%; font-size: 12px;">BFS – Statistik der Lernenden (SDL)</tspan></text><text transform="translate(599.984375, 907)"><tspan fill="rgb(51,51,51)" x="-63.578125" y="13" style="font-family: Roboto; font-weight: 400; font-stretch: 100%; font-size: 12px;">©</tspan><tspan fill="rgb(51,51,51)" dx="2.984375" style="font-family: Roboto; font-weight: 400; font-stretch: 100%; font-size: 12px;">BFS 2024</tspan></text></g></g></g></g></svg>