<?xml version="1.0" encoding="utf-8" standalone="no"?>
<!DOCTYPE svg PUBLIC "-//W3C//DTD SVG 1.1//EN"
  "http://www.w3.org/Graphics/SVG/1.1/DTD/svg11.dtd">
<svg xmlns:xlink="http://www.w3.org/1999/xlink" width="572.4pt" height="140.398125pt" viewBox="0 0 572.4 140.398125" xmlns="http://www.w3.org/2000/svg" version="1.1">
 <metadata>
  <rdf:RDF xmlns:dc="http://purl.org/dc/elements/1.1/" xmlns:cc="http://creativecommons.org/ns#" xmlns:rdf="http://www.w3.org/1999/02/22-rdf-syntax-ns#">
   <cc:Work>
    <dc:type rdf:resource="http://purl.org/dc/dcmitype/StillImage"/>
    <dc:date>2024-09-12T07:08:03.872538</dc:date>
    <dc:format>image/svg+xml</dc:format>
    <dc:creator>
     <cc:Agent>
      <dc:title>Matplotlib v3.9.1, https://matplotlib.org/</dc:title>
     </cc:Agent>
    </dc:creator>
   </cc:Work>
  </rdf:RDF>
 </metadata>
 <defs>
  <style type="text/css">*{stroke-linejoin: round; stroke-linecap: butt}</style>
 </defs>
 <g id="figure_1">
  <g id="patch_1">
   <path d="M 0 140.398125 
L 572.4 140.398125 
L 572.4 0 
L 0 0 
L 0 140.398125 
z
" style="fill: none; opacity: 0"/>
  </g>
  <g id="axes_1">
   <g id="patch_2">
    <path d="M 7.2 133.198125 
L 16.297588 133.198125 
L 16.297588 22.318125 
L 7.2 22.318125 
z
" clip-path="url(#pf0a285e685)" style="fill: #808080; stroke: #0000ff; stroke-linejoin: miter"/>
   </g>
   <g id="patch_3">
    <path d="M 16.96201 133.198125 
L 27.388442 133.198125 
L 27.388442 22.318125 
L 16.96201 22.318125 
z
" clip-path="url(#pf0a285e685)" style="fill: #808080; stroke: #0000ff; stroke-linejoin: miter"/>
   </g>
   <g id="patch_4">
    <path d="M 27.40737 133.198125 
L 37.87166 133.198125 
L 37.87166 22.318125 
L 27.40737 22.318125 
z
" clip-path="url(#pf0a285e685)" style="fill: #808080; stroke: #0000ff; stroke-linejoin: miter"/>
   </g>
   <g id="patch_5">
    <path d="M 38.85688 133.198125 
L 51.291611 133.198125 
L 51.291611 22.318125 
L 38.85688 22.318125 
z
" clip-path="url(#pf0a285e685)" style="fill: #c6f2c6; stroke: #0000ff; stroke-linejoin: miter"/>
   </g>
   <g id="patch_6">
    <path d="M 52.344896 133.198125 
L 66.886196 133.198125 
L 66.886196 22.318125 
L 52.344896 22.318125 
z
" clip-path="url(#pf0a285e685)" style="fill: #808080; stroke: #0000ff; stroke-linejoin: miter"/>
   </g>
   <g id="patch_7">
    <path d="M 67.072748 133.198125 
L 81.987151 133.198125 
L 81.987151 22.318125 
L 67.072748 22.318125 
z
" clip-path="url(#pf0a285e685)" style="fill: #808080; stroke: #0000ff; stroke-linejoin: miter"/>
   </g>
   <g id="patch_8">
    <path d="M 82.285431 133.198125 
L 97.796393 133.198125 
L 97.796393 22.318125 
L 82.285431 22.318125 
z
" clip-path="url(#pf0a285e685)" style="fill: #808080; stroke: #0000ff; stroke-linejoin: miter"/>
   </g>
   <g id="patch_9">
    <path d="M 98.115293 133.198125 
L 114.264056 133.198125 
L 114.264056 22.318125 
L 98.115293 22.318125 
z
" clip-path="url(#pf0a285e685)" style="fill: #9ee89e; stroke: #0000ff; stroke-linejoin: miter"/>
   </g>
   <g id="patch_10">
    <path d="M 114.28178 133.198125 
L 130.46599 133.198125 
L 130.46599 22.318125 
L 114.28178 22.318125 
z
" clip-path="url(#pf0a285e685)" style="fill: #808080; stroke: #0000ff; stroke-linejoin: miter"/>
   </g>
   <g id="patch_11">
    <path d="M 130.546772 133.198125 
L 146.892548 133.198125 
L 146.892548 22.318125 
L 130.546772 22.318125 
z
" clip-path="url(#pf0a285e685)" style="fill: #9be89b; stroke: #0000ff; stroke-linejoin: miter"/>
   </g>
   <g id="patch_12">
    <path d="M 147.31749 133.198125 
L 164.513151 133.198125 
L 164.513151 22.318125 
L 147.31749 22.318125 
z
" clip-path="url(#pf0a285e685)" style="fill: #93e593; stroke: #0000ff; stroke-linejoin: miter"/>
   </g>
   <g id="patch_13">
    <path d="M 164.642866 133.198125 
L 182.097957 133.198125 
L 182.097957 22.318125 
L 164.642866 22.318125 
z
" clip-path="url(#pf0a285e685)" style="fill: #8fe58f; stroke: #0000ff; stroke-linejoin: miter"/>
   </g>
   <g id="patch_14">
    <path d="M 182.286951 133.198125 
L 200.120031 133.198125 
L 200.120031 22.318125 
L 182.286951 22.318125 
z
" clip-path="url(#pf0a285e685)" style="fill: #8be38b; stroke: #0000ff; stroke-linejoin: miter"/>
   </g>
   <g id="patch_15">
    <path d="M 200.366731 133.198125 
L 218.69321 133.198125 
L 218.69321 22.318125 
L 200.366731 22.318125 
z
" clip-path="url(#pf0a285e685)" style="fill: #86e286; stroke: #0000ff; stroke-linejoin: miter"/>
   </g>
   <g id="patch_16">
    <path d="M 218.999085 133.198125 
L 237.937315 133.198125 
L 237.937315 22.318125 
L 218.999085 22.318125 
z
" clip-path="url(#pf0a285e685)" style="fill: #80e180; stroke: #0000ff; stroke-linejoin: miter"/>
   </g>
   <g id="patch_17">
    <path d="M 238.112404 133.198125 
L 257.400812 133.198125 
L 257.400812 22.318125 
L 238.112404 22.318125 
z
" clip-path="url(#pf0a285e685)" style="fill: #7bdf7b; stroke: #0000ff; stroke-linejoin: miter"/>
   </g>
   <g id="patch_18">
    <path d="M 257.534374 133.198125 
L 277.089907 133.198125 
L 277.089907 22.318125 
L 257.534374 22.318125 
z
" clip-path="url(#pf0a285e685)" style="fill: #808080; stroke: #0000ff; stroke-linejoin: miter"/>
   </g>
   <g id="patch_19">
    <path d="M 277.210951 133.198125 
L 297.008571 133.198125 
L 297.008571 22.318125 
L 277.210951 22.318125 
z
" clip-path="url(#pf0a285e685)" style="fill: #808080; stroke: #0000ff; stroke-linejoin: miter"/>
   </g>
   <g id="patch_20">
    <path d="M 297.057286 133.198125 
L 316.952337 133.198125 
L 316.952337 22.318125 
L 297.057286 22.318125 
z
" clip-path="url(#pf0a285e685)" style="fill: #808080; stroke: #0000ff; stroke-linejoin: miter"/>
   </g>
   <g id="patch_21">
    <path d="M 317.162894 133.198125 
L 337.47906 133.198125 
L 337.47906 22.318125 
L 317.162894 22.318125 
z
" clip-path="url(#pf0a285e685)" style="fill: #808080; stroke: #0000ff; stroke-linejoin: miter"/>
   </g>
   <g id="patch_22">
    <path d="M 337.607213 133.198125 
L 358.179685 133.198125 
L 358.179685 22.318125 
L 337.607213 22.318125 
z
" clip-path="url(#pf0a285e685)" style="fill: #808080; stroke: #0000ff; stroke-linejoin: miter"/>
   </g>
   <g id="patch_23">
    <path d="M 358.271761 133.198125 
L 379.028385 133.198125 
L 379.028385 22.318125 
L 358.271761 22.318125 
z
" clip-path="url(#pf0a285e685)" style="fill: #6cdc6c; stroke: #0000ff; stroke-linejoin: miter"/>
   </g>
   <g id="patch_24">
    <path d="M 379.225148 133.198125 
L 400.375297 133.198125 
L 400.375297 22.318125 
L 379.225148 22.318125 
z
" clip-path="url(#pf0a285e685)" style="fill: #67da67; stroke: #0000ff; stroke-linejoin: miter"/>
   </g>
   <g id="patch_25">
    <path d="M 400.695723 133.198125 
L 422.486723 133.198125 
L 422.486723 22.318125 
L 400.695723 22.318125 
z
" clip-path="url(#pf0a285e685)" style="fill: #808080; stroke: #0000ff; stroke-linejoin: miter"/>
   </g>
   <g id="patch_26">
    <path d="M 422.877908 133.198125 
L 445.451279 133.198125 
L 445.451279 22.318125 
L 422.877908 22.318125 
z
" clip-path="url(#pf0a285e685)" style="fill: #808080; stroke: #0000ff; stroke-linejoin: miter"/>
   </g>
   <g id="patch_27">
    <path d="M 445.456993 133.198125 
L 468.041791 133.198125 
L 468.041791 22.318125 
L 445.456993 22.318125 
z
" clip-path="url(#pf0a285e685)" style="fill: #58d758; stroke: #0000ff; stroke-linejoin: miter"/>
   </g>
   <g id="patch_28">
    <path d="M 468.264346 133.198125 
L 491.294254 133.198125 
L 491.294254 22.318125 
L 468.264346 22.318125 
z
" clip-path="url(#pf0a285e685)" style="fill: #808080; stroke: #0000ff; stroke-linejoin: miter"/>
   </g>
   <g id="patch_29">
    <path d="M 491.305742 133.198125 
L 514.358627 133.198125 
L 514.358627 22.318125 
L 491.305742 22.318125 
z
" clip-path="url(#pf0a285e685)" style="fill: #808080; stroke: #0000ff; stroke-linejoin: miter"/>
   </g>
   <g id="patch_30">
    <path d="M 514.875357 133.198125 
L 538.961702 133.198125 
L 538.961702 22.318125 
L 514.875357 22.318125 
z
" clip-path="url(#pf0a285e685)" style="fill: #47d247; stroke: #0000ff; stroke-linejoin: miter"/>
   </g>
   <g id="patch_31">
    <path d="M 539.540491 133.198125 
L 564.784414 133.198125 
L 564.784414 22.318125 
L 539.540491 22.318125 
z
" clip-path="url(#pf0a285e685)" style="fill: #3bcf3b; stroke: #0000ff; stroke-linejoin: miter"/>
   </g>
   <g id="patch_32">
    <path d="M 565.2 133.198125 
L 591.275095 133.198125 
L 591.275095 22.318125 
L 565.2 22.318125 
z
" clip-path="url(#pf0a285e685)" style="fill: #808080; stroke: #0000ff; stroke-linejoin: miter"/>
   </g>
   <g id="text_1">
    <text style="font: 12px 'DejaVu Sans', 'Bitstream Vera Sans', 'Computer Modern Sans Serif', 'Lucida Grande', 'Verdana', 'Geneva', 'Lucid', 'Arial', 'Helvetica', 'Avant Garde', sans-serif; text-anchor: middle" x="286.2" y="16.318125" transform="rotate(-0 286.2 16.318125)">D, F, E</text>
   </g>
  </g>
 </g>
 <defs>
  <clipPath id="pf0a285e685">
   <rect x="7.2" y="22.318125" width="558" height="110.88"/>
  </clipPath>
 </defs>
</svg>
