<?xml version="1.0" encoding="utf-8" standalone="no"?>
<!DOCTYPE svg PUBLIC "-//W3C//DTD SVG 1.1//EN"
  "http://www.w3.org/Graphics/SVG/1.1/DTD/svg11.dtd">
<svg xmlns:xlink="http://www.w3.org/1999/xlink" width="1080pt" height="504pt" viewBox="0 0 1080 504" xmlns="http://www.w3.org/2000/svg" version="1.1">
 <metadata>
  <rdf:RDF xmlns:dc="http://purl.org/dc/elements/1.1/" xmlns:cc="http://creativecommons.org/ns#" xmlns:rdf="http://www.w3.org/1999/02/22-rdf-syntax-ns#">
   <cc:Work>
    <dc:type rdf:resource="http://purl.org/dc/dcmitype/StillImage"/>
    <dc:date>2024-09-12T06:54:57.271939</dc:date>
    <dc:format>image/svg+xml</dc:format>
    <dc:creator>
     <cc:Agent>
      <dc:title>Matplotlib v3.9.1, https://matplotlib.org/</dc:title>
     </cc:Agent>
    </dc:creator>
   </cc:Work>
  </rdf:RDF>
 </metadata>
 <defs>
  <style type="text/css">*{stroke-linejoin: round; stroke-linecap: butt}</style>
 </defs>
 <g id="figure_1">
  <g id="patch_1">
   <path d="M 0 504 
L 1080 504 
L 1080 0 
L 0 0 
L 0 504 
z
" style="fill: none; opacity: 0"/>
  </g>
  <g id="axes_1">
   <g id="patch_2">
    <path d="M 135 448.56 
L 972 448.56 
L 972 60.48 
L 135 60.48 
L 135 448.56 
z
" style="fill: none; opacity: 0"/>
   </g>
   <g id="PathCollection_1">
    <defs>
     <path id="me11f3f9c1e" d="M 0 3 
C 0.795609 3 1.55874 2.683901 2.12132 2.12132 
C 2.683901 1.55874 3 0.795609 3 0 
C 3 -0.795609 2.683901 -1.55874 2.12132 -2.12132 
C 1.55874 -2.683901 0.795609 -3 0 -3 
C -0.795609 -3 -1.55874 -2.683901 -2.12132 -2.12132 
C -2.683901 -1.55874 -3 -0.795609 -3 0 
C -3 0.795609 -2.683901 1.55874 -2.12132 2.12132 
C -1.55874 2.683901 -0.795609 3 0 3 
z
" style="stroke: #1f77b4; stroke-opacity: 0.8"/>
    </defs>
    <g clip-path="url(#p12a23d1aca)">
     <use xlink:href="#me11f3f9c1e" x="432.38734" y="289.607738" style="fill: #1f77b4; fill-opacity: 0.8; stroke: #1f77b4; stroke-opacity: 0.8"/>
     <use xlink:href="#me11f3f9c1e" x="411.639989" y="316.52436" style="fill: #1f77b4; fill-opacity: 0.8; stroke: #1f77b4; stroke-opacity: 0.8"/>
     <use xlink:href="#me11f3f9c1e" x="536.124094" y="181.941253" style="fill: #1f77b4; fill-opacity: 0.8; stroke: #1f77b4; stroke-opacity: 0.8"/>
     <use xlink:href="#me11f3f9c1e" x="473.882041" y="235.774496" style="fill: #1f77b4; fill-opacity: 0.8; stroke: #1f77b4; stroke-opacity: 0.8"/>
     <use xlink:href="#me11f3f9c1e" x="515.376743" y="306.430627" style="fill: #1f77b4; fill-opacity: 0.8; stroke: #1f77b4; stroke-opacity: 0.8"/>
     <use xlink:href="#me11f3f9c1e" x="432.38734" y="323.253515" style="fill: #1f77b4; fill-opacity: 0.8; stroke: #1f77b4; stroke-opacity: 0.8"/>
     <use xlink:href="#me11f3f9c1e" x="494.629392" y="208.857875" style="fill: #1f77b4; fill-opacity: 0.8; stroke: #1f77b4; stroke-opacity: 0.8"/>
     <use xlink:href="#me11f3f9c1e" x="494.629392" y="316.52436" style="fill: #1f77b4; fill-opacity: 0.8; stroke: #1f77b4; stroke-opacity: 0.8"/>
     <use xlink:href="#me11f3f9c1e" x="785.092303" y="104.555967" style="fill: #1f77b4; fill-opacity: 0.8; stroke: #1f77b4; stroke-opacity: 0.8"/>
     <use xlink:href="#me11f3f9c1e" x="764.344953" y="306.430627" style="fill: #1f77b4; fill-opacity: 0.8; stroke: #1f77b4; stroke-opacity: 0.8"/>
     <use xlink:href="#me11f3f9c1e" x="494.629392" y="262.691117" style="fill: #1f77b4; fill-opacity: 0.8; stroke: #1f77b4; stroke-opacity: 0.8"/>
     <use xlink:href="#me11f3f9c1e" x="598.366146" y="306.430627" style="fill: #1f77b4; fill-opacity: 0.8; stroke: #1f77b4; stroke-opacity: 0.8"/>
     <use xlink:href="#me11f3f9c1e" x="432.38734" y="363.628447" style="fill: #1f77b4; fill-opacity: 0.8; stroke: #1f77b4; stroke-opacity: 0.8"/>
     <use xlink:href="#me11f3f9c1e" x="660.608199" y="165.118365" style="fill: #1f77b4; fill-opacity: 0.8; stroke: #1f77b4; stroke-opacity: 0.8"/>
     <use xlink:href="#me11f3f9c1e" x="619.113497" y="229.045341" style="fill: #1f77b4; fill-opacity: 0.8; stroke: #1f77b4; stroke-opacity: 0.8"/>
     <use xlink:href="#me11f3f9c1e" x="660.608199" y="141.566322" style="fill: #1f77b4; fill-opacity: 0.8; stroke: #1f77b4; stroke-opacity: 0.8"/>
     <use xlink:href="#me11f3f9c1e" x="660.608199" y="212.222452" style="fill: #1f77b4; fill-opacity: 0.8; stroke: #1f77b4; stroke-opacity: 0.8"/>
     <use xlink:href="#me11f3f9c1e" x="764.344953" y="151.660054" style="fill: #1f77b4; fill-opacity: 0.8; stroke: #1f77b4; stroke-opacity: 0.8"/>
     <use xlink:href="#me11f3f9c1e" x="598.366146" y="144.930899" style="fill: #1f77b4; fill-opacity: 0.8; stroke: #1f77b4; stroke-opacity: 0.8"/>
     <use xlink:href="#me11f3f9c1e" x="494.629392" y="245.868229" style="fill: #1f77b4; fill-opacity: 0.8; stroke: #1f77b4; stroke-opacity: 0.8"/>
     <use xlink:href="#me11f3f9c1e" x="494.629392" y="350.170136" style="fill: #1f77b4; fill-opacity: 0.8; stroke: #1f77b4; stroke-opacity: 0.8"/>
     <use xlink:href="#me11f3f9c1e" x="411.639989" y="313.159782" style="fill: #1f77b4; fill-opacity: 0.8; stroke: #1f77b4; stroke-opacity: 0.8"/>
     <use xlink:href="#me11f3f9c1e" x="307.903235" y="377.086757" style="fill: #1f77b4; fill-opacity: 0.8; stroke: #1f77b4; stroke-opacity: 0.8"/>
     <use xlink:href="#me11f3f9c1e" x="411.639989" y="319.888937" style="fill: #1f77b4; fill-opacity: 0.8; stroke: #1f77b4; stroke-opacity: 0.8"/>
     <use xlink:href="#me11f3f9c1e" x="370.145287" y="313.159782" style="fill: #1f77b4; fill-opacity: 0.8; stroke: #1f77b4; stroke-opacity: 0.8"/>
     <use xlink:href="#me11f3f9c1e" x="743.597602" y="202.128719" style="fill: #1f77b4; fill-opacity: 0.8; stroke: #1f77b4; stroke-opacity: 0.8"/>
     <use xlink:href="#me11f3f9c1e" x="349.397936" y="430.92" style="fill: #1f77b4; fill-opacity: 0.8; stroke: #1f77b4; stroke-opacity: 0.8"/>
     <use xlink:href="#me11f3f9c1e" x="764.344953" y="118.014278" style="fill: #1f77b4; fill-opacity: 0.8; stroke: #1f77b4; stroke-opacity: 0.8"/>
     <use xlink:href="#me11f3f9c1e" x="307.903235" y="282.878583" style="fill: #1f77b4; fill-opacity: 0.8; stroke: #1f77b4; stroke-opacity: 0.8"/>
     <use xlink:href="#me11f3f9c1e" x="307.903235" y="404.003379" style="fill: #1f77b4; fill-opacity: 0.8; stroke: #1f77b4; stroke-opacity: 0.8"/>
     <use xlink:href="#me11f3f9c1e" x="515.376743" y="356.899292" style="fill: #1f77b4; fill-opacity: 0.8; stroke: #1f77b4; stroke-opacity: 0.8"/>
     <use xlink:href="#me11f3f9c1e" x="411.639989" y="309.795204" style="fill: #1f77b4; fill-opacity: 0.8; stroke: #1f77b4; stroke-opacity: 0.8"/>
     <use xlink:href="#me11f3f9c1e" x="287.155884" y="195.399564" style="fill: #1f77b4; fill-opacity: 0.8; stroke: #1f77b4; stroke-opacity: 0.8"/>
     <use xlink:href="#me11f3f9c1e" x="577.618795" y="281.897248" style="fill: #1f77b4; fill-opacity: 0.8; stroke: #1f77b4; stroke-opacity: 0.8"/>
     <use xlink:href="#me11f3f9c1e" x="743.597602" y="181.941253" style="fill: #1f77b4; fill-opacity: 0.8; stroke: #1f77b4; stroke-opacity: 0.8"/>
     <use xlink:href="#me11f3f9c1e" x="328.650586" y="340.076403" style="fill: #1f77b4; fill-opacity: 0.8; stroke: #1f77b4; stroke-opacity: 0.8"/>
     <use xlink:href="#me11f3f9c1e" x="245.661182" y="276.149428" style="fill: #1f77b4; fill-opacity: 0.8; stroke: #1f77b4; stroke-opacity: 0.8"/>
     <use xlink:href="#me11f3f9c1e" x="494.629392" y="255.961962" style="fill: #1f77b4; fill-opacity: 0.8; stroke: #1f77b4; stroke-opacity: 0.8"/>
     <use xlink:href="#me11f3f9c1e" x="515.376743" y="181.941253" style="fill: #1f77b4; fill-opacity: 0.8; stroke: #1f77b4; stroke-opacity: 0.8"/>
     <use xlink:href="#me11f3f9c1e" x="390.892638" y="316.52436" style="fill: #1f77b4; fill-opacity: 0.8; stroke: #1f77b4; stroke-opacity: 0.8"/>
     <use xlink:href="#me11f3f9c1e" x="287.155884" y="397.274223" style="fill: #1f77b4; fill-opacity: 0.8; stroke: #1f77b4; stroke-opacity: 0.8"/>
     <use xlink:href="#me11f3f9c1e" x="556.871445" y="350.170136" style="fill: #1f77b4; fill-opacity: 0.8; stroke: #1f77b4; stroke-opacity: 0.8"/>
     <use xlink:href="#me11f3f9c1e" x="453.13469" y="272.78485" style="fill: #1f77b4; fill-opacity: 0.8; stroke: #1f77b4; stroke-opacity: 0.8"/>
     <use xlink:href="#me11f3f9c1e" x="639.860848" y="298.019183" style="fill: #1f77b4; fill-opacity: 0.8; stroke: #1f77b4; stroke-opacity: 0.8"/>
     <use xlink:href="#me11f3f9c1e" x="499.81623" y="350.961802" style="fill: #1f77b4; fill-opacity: 0.8; stroke: #1f77b4; stroke-opacity: 0.8"/>
     <use xlink:href="#me11f3f9c1e" x="383.112381" y="346.274309" style="fill: #1f77b4; fill-opacity: 0.8; stroke: #1f77b4; stroke-opacity: 0.8"/>
     <use xlink:href="#me11f3f9c1e" x="406.453151" y="363.982613" style="fill: #1f77b4; fill-opacity: 0.8; stroke: #1f77b4; stroke-opacity: 0.8"/>
     <use xlink:href="#me11f3f9c1e" x="476.47546" y="346.274309" style="fill: #1f77b4; fill-opacity: 0.8; stroke: #1f77b4; stroke-opacity: 0.8"/>
     <use xlink:href="#me11f3f9c1e" x="359.771612" y="390.545068" style="fill: #1f77b4; fill-opacity: 0.8; stroke: #1f77b4; stroke-opacity: 0.8"/>
     <use xlink:href="#me11f3f9c1e" x="313.090073" y="359.555537" style="fill: #1f77b4; fill-opacity: 0.8; stroke: #1f77b4; stroke-opacity: 0.8"/>
     <use xlink:href="#me11f3f9c1e" x="406.453151" y="309.489334" style="fill: #1f77b4; fill-opacity: 0.8; stroke: #1f77b4; stroke-opacity: 0.8"/>
     <use xlink:href="#me11f3f9c1e" x="569.838539" y="191.729116" style="fill: #1f77b4; fill-opacity: 0.8; stroke: #1f77b4; stroke-opacity: 0.8"/>
     <use xlink:href="#me11f3f9c1e" x="289.749303" y="273.51628" style="fill: #1f77b4; fill-opacity: 0.8; stroke: #1f77b4; stroke-opacity: 0.8"/>
     <use xlink:href="#me11f3f9c1e" x="616.520078" y="353.075908" style="fill: #1f77b4; fill-opacity: 0.8; stroke: #1f77b4; stroke-opacity: 0.8"/>
     <use xlink:href="#me11f3f9c1e" x="569.838539" y="290.372415" style="fill: #1f77b4; fill-opacity: 0.8; stroke: #1f77b4; stroke-opacity: 0.8"/>
     <use xlink:href="#me11f3f9c1e" x="453.13469" y="294.960476" style="fill: #1f77b4; fill-opacity: 0.8; stroke: #1f77b4; stroke-opacity: 0.8"/>
     <use xlink:href="#me11f3f9c1e" x="173.045455" y="358.501471" style="fill: #1f77b4; fill-opacity: 0.8; stroke: #1f77b4; stroke-opacity: 0.8"/>
     <use xlink:href="#me11f3f9c1e" x="313.090073" y="416.981035" style="fill: #1f77b4; fill-opacity: 0.8; stroke: #1f77b4; stroke-opacity: 0.8"/>
     <use xlink:href="#me11f3f9c1e" x="383.112381" y="344.664464" style="fill: #1f77b4; fill-opacity: 0.8; stroke: #1f77b4; stroke-opacity: 0.8"/>
     <use xlink:href="#me11f3f9c1e" x="569.838539" y="305.66595" style="fill: #1f77b4; fill-opacity: 0.8; stroke: #1f77b4; stroke-opacity: 0.8"/>
     <use xlink:href="#me11f3f9c1e" x="663.201617" y="195.552499" style="fill: #1f77b4; fill-opacity: 0.8; stroke: #1f77b4; stroke-opacity: 0.8"/>
     <use xlink:href="#me11f3f9c1e" x="476.47546" y="356.098202" style="fill: #1f77b4; fill-opacity: 0.8; stroke: #1f77b4; stroke-opacity: 0.8"/>
     <use xlink:href="#me11f3f9c1e" x="476.47546" y="362.506921" style="fill: #1f77b4; fill-opacity: 0.8; stroke: #1f77b4; stroke-opacity: 0.8"/>
     <use xlink:href="#me11f3f9c1e" x="593.179308" y="272.020173" style="fill: #1f77b4; fill-opacity: 0.8; stroke: #1f77b4; stroke-opacity: 0.8"/>
     <use xlink:href="#me11f3f9c1e" x="476.47546" y="256.726639" style="fill: #1f77b4; fill-opacity: 0.8; stroke: #1f77b4; stroke-opacity: 0.8"/>
     <use xlink:href="#me11f3f9c1e" x="499.81623" y="354.605261" style="fill: #1f77b4; fill-opacity: 0.8; stroke: #1f77b4; stroke-opacity: 0.8"/>
     <use xlink:href="#me11f3f9c1e" x="243.067764" y="306.430627" style="fill: #1f77b4; fill-opacity: 0.8; stroke: #1f77b4; stroke-opacity: 0.8"/>
     <use xlink:href="#me11f3f9c1e" x="663.201617" y="278.39248" style="fill: #1f77b4; fill-opacity: 0.8; stroke: #1f77b4; stroke-opacity: 0.8"/>
     <use xlink:href="#me11f3f9c1e" x="523.156999" y="298.419728" style="fill: #1f77b4; fill-opacity: 0.8; stroke: #1f77b4; stroke-opacity: 0.8"/>
     <use xlink:href="#me11f3f9c1e" x="663.201617" y="310.436076" style="fill: #1f77b4; fill-opacity: 0.8; stroke: #1f77b4; stroke-opacity: 0.8"/>
     <use xlink:href="#me11f3f9c1e" x="779.905466" y="142.207193" style="fill: #1f77b4; fill-opacity: 0.8; stroke: #1f77b4; stroke-opacity: 0.8"/>
     <use xlink:href="#me11f3f9c1e" x="499.81623" y="354.496022" style="fill: #1f77b4; fill-opacity: 0.8; stroke: #1f77b4; stroke-opacity: 0.8"/>
     <use xlink:href="#me11f3f9c1e" x="429.793921" y="250.354332" style="fill: #1f77b4; fill-opacity: 0.8; stroke: #1f77b4; stroke-opacity: 0.8"/>
     <use xlink:href="#me11f3f9c1e" x="383.112381" y="358.501471" style="fill: #1f77b4; fill-opacity: 0.8; stroke: #1f77b4; stroke-opacity: 0.8"/>
     <use xlink:href="#me11f3f9c1e" x="476.47546" y="338.474223" style="fill: #1f77b4; fill-opacity: 0.8; stroke: #1f77b4; stroke-opacity: 0.8"/>
     <use xlink:href="#me11f3f9c1e" x="546.497769" y="294.414278" style="fill: #1f77b4; fill-opacity: 0.8; stroke: #1f77b4; stroke-opacity: 0.8"/>
     <use xlink:href="#me11f3f9c1e" x="569.838539" y="266.376131" style="fill: #1f77b4; fill-opacity: 0.8; stroke: #1f77b4; stroke-opacity: 0.8"/>
     <use xlink:href="#me11f3f9c1e" x="359.771612" y="330.463324" style="fill: #1f77b4; fill-opacity: 0.8; stroke: #1f77b4; stroke-opacity: 0.8"/>
     <use xlink:href="#me11f3f9c1e" x="429.793921" y="358.501471" style="fill: #1f77b4; fill-opacity: 0.8; stroke: #1f77b4; stroke-opacity: 0.8"/>
     <use xlink:href="#me11f3f9c1e" x="383.112381" y="366.512371" style="fill: #1f77b4; fill-opacity: 0.8; stroke: #1f77b4; stroke-opacity: 0.8"/>
     <use xlink:href="#me11f3f9c1e" x="532.493307" y="154.223542" style="fill: #1f77b4; fill-opacity: 0.8; stroke: #1f77b4; stroke-opacity: 0.8"/>
     <use xlink:href="#me11f3f9c1e" x="471.807306" y="238.337984" style="fill: #1f77b4; fill-opacity: 0.8; stroke: #1f77b4; stroke-opacity: 0.8"/>
     <use xlink:href="#me11f3f9c1e" x="933.954545" y="78.12" style="fill: #1f77b4; fill-opacity: 0.8; stroke: #1f77b4; stroke-opacity: 0.8"/>
     <use xlink:href="#me11f3f9c1e" x="420.457613" y="310.436076" style="fill: #1f77b4; fill-opacity: 0.8; stroke: #1f77b4; stroke-opacity: 0.8"/>
     <use xlink:href="#me11f3f9c1e" x="625.856386" y="262.370681" style="fill: #1f77b4; fill-opacity: 0.8; stroke: #1f77b4; stroke-opacity: 0.8"/>
     <use xlink:href="#me11f3f9c1e" x="439.130229" y="274.38703" style="fill: #1f77b4; fill-opacity: 0.8; stroke: #1f77b4; stroke-opacity: 0.8"/>
     <use xlink:href="#me11f3f9c1e" x="499.81623" y="214.305286" style="fill: #1f77b4; fill-opacity: 0.8; stroke: #1f77b4; stroke-opacity: 0.8"/>
     <use xlink:href="#me11f3f9c1e" x="793.909927" y="134.196294" style="fill: #1f77b4; fill-opacity: 0.8; stroke: #1f77b4; stroke-opacity: 0.8"/>
     <use xlink:href="#me11f3f9c1e" x="481.143614" y="250.354332" style="fill: #1f77b4; fill-opacity: 0.8; stroke: #1f77b4; stroke-opacity: 0.8"/>
     <use xlink:href="#me11f3f9c1e" x="779.905466" y="152.220817" style="fill: #1f77b4; fill-opacity: 0.8; stroke: #1f77b4; stroke-opacity: 0.8"/>
     <use xlink:href="#me11f3f9c1e" x="401.784997" y="292.411553" style="fill: #1f77b4; fill-opacity: 0.8; stroke: #1f77b4; stroke-opacity: 0.8"/>
     <use xlink:href="#me11f3f9c1e" x="387.780535" y="285.402016" style="fill: #1f77b4; fill-opacity: 0.8; stroke: #1f77b4; stroke-opacity: 0.8"/>
     <use xlink:href="#me11f3f9c1e" x="518.488846" y="380.030763" style="fill: #1f77b4; fill-opacity: 0.8; stroke: #1f77b4; stroke-opacity: 0.8"/>
     <use xlink:href="#me11f3f9c1e" x="537.161461" y="166.239891" style="fill: #1f77b4; fill-opacity: 0.8; stroke: #1f77b4; stroke-opacity: 0.8"/>
     <use xlink:href="#me11f3f9c1e" x="434.462075" y="280.830579" style="fill: #1f77b4; fill-opacity: 0.8; stroke: #1f77b4; stroke-opacity: 0.8"/>
     <use xlink:href="#me11f3f9c1e" x="271.076687" y="334.468774" style="fill: #1f77b4; fill-opacity: 0.8; stroke: #1f77b4; stroke-opacity: 0.8"/>
     <use xlink:href="#me11f3f9c1e" x="266.408533" y="362.506921" style="fill: #1f77b4; fill-opacity: 0.8; stroke: #1f77b4; stroke-opacity: 0.8"/>
     <use xlink:href="#me11f3f9c1e" x="429.793921" y="243.344796" style="fill: #1f77b4; fill-opacity: 0.8; stroke: #1f77b4; stroke-opacity: 0.8"/>
     <use xlink:href="#me11f3f9c1e" x="490.479922" y="330.964005" style="fill: #1f77b4; fill-opacity: 0.8; stroke: #1f77b4; stroke-opacity: 0.8"/>
     <use xlink:href="#me11f3f9c1e" x="364.439766" y="341.478311" style="fill: #1f77b4; fill-opacity: 0.8; stroke: #1f77b4; stroke-opacity: 0.8"/>
     <use xlink:href="#me11f3f9c1e" x="415.789459" y="316.944932" style="fill: #1f77b4; fill-opacity: 0.8; stroke: #1f77b4; stroke-opacity: 0.8"/>
     <use xlink:href="#me11f3f9c1e" x="432.38734" y="292.972316" style="fill: #1f77b4; fill-opacity: 0.8; stroke: #1f77b4; stroke-opacity: 0.8"/>
     <use xlink:href="#me11f3f9c1e" x="307.903235" y="282.878583" style="fill: #1f77b4; fill-opacity: 0.8; stroke: #1f77b4; stroke-opacity: 0.8"/>
     <use xlink:href="#me11f3f9c1e" x="515.376743" y="289.607738" style="fill: #1f77b4; fill-opacity: 0.8; stroke: #1f77b4; stroke-opacity: 0.8"/>
     <use xlink:href="#me11f3f9c1e" x="411.639989" y="407.367956" style="fill: #1f77b4; fill-opacity: 0.8; stroke: #1f77b4; stroke-opacity: 0.8"/>
     <use xlink:href="#me11f3f9c1e" x="307.903235" y="377.086757" style="fill: #1f77b4; fill-opacity: 0.8; stroke: #1f77b4; stroke-opacity: 0.8"/>
     <use xlink:href="#me11f3f9c1e" x="598.366146" y="336.711826" style="fill: #1f77b4; fill-opacity: 0.8; stroke: #1f77b4; stroke-opacity: 0.8"/>
     <use xlink:href="#me11f3f9c1e" x="556.871445" y="239.139074" style="fill: #1f77b4; fill-opacity: 0.8; stroke: #1f77b4; stroke-opacity: 0.8"/>
     <use xlink:href="#me11f3f9c1e" x="411.639989" y="377.086757" style="fill: #1f77b4; fill-opacity: 0.8; stroke: #1f77b4; stroke-opacity: 0.8"/>
     <use xlink:href="#me11f3f9c1e" x="639.860848" y="239.139074" style="fill: #1f77b4; fill-opacity: 0.8; stroke: #1f77b4; stroke-opacity: 0.8"/>
     <use xlink:href="#me11f3f9c1e" x="390.892638" y="319.888937" style="fill: #1f77b4; fill-opacity: 0.8; stroke: #1f77b4; stroke-opacity: 0.8"/>
     <use xlink:href="#me11f3f9c1e" x="432.38734" y="360.263869" style="fill: #1f77b4; fill-opacity: 0.8; stroke: #1f77b4; stroke-opacity: 0.8"/>
     <use xlink:href="#me11f3f9c1e" x="702.1029" y="218.951608" style="fill: #1f77b4; fill-opacity: 0.8; stroke: #1f77b4; stroke-opacity: 0.8"/>
     <use xlink:href="#me11f3f9c1e" x="743.597602" y="198.764142" style="fill: #1f77b4; fill-opacity: 0.8; stroke: #1f77b4; stroke-opacity: 0.8"/>
     <use xlink:href="#me11f3f9c1e" x="515.376743" y="299.701471" style="fill: #1f77b4; fill-opacity: 0.8; stroke: #1f77b4; stroke-opacity: 0.8"/>
     <use xlink:href="#me11f3f9c1e" x="515.376743" y="175.212098" style="fill: #1f77b4; fill-opacity: 0.8; stroke: #1f77b4; stroke-opacity: 0.8"/>
     <use xlink:href="#me11f3f9c1e" x="743.597602" y="188.670409" style="fill: #1f77b4; fill-opacity: 0.8; stroke: #1f77b4; stroke-opacity: 0.8"/>
     <use xlink:href="#me11f3f9c1e" x="370.145287" y="387.18049" style="fill: #1f77b4; fill-opacity: 0.8; stroke: #1f77b4; stroke-opacity: 0.8"/>
     <use xlink:href="#me11f3f9c1e" x="411.639989" y="373.72218" style="fill: #1f77b4; fill-opacity: 0.8; stroke: #1f77b4; stroke-opacity: 0.8"/>
     <use xlink:href="#me11f3f9c1e" x="598.366146" y="252.597384" style="fill: #1f77b4; fill-opacity: 0.8; stroke: #1f77b4; stroke-opacity: 0.8"/>
     <use xlink:href="#me11f3f9c1e" x="411.639989" y="326.618093" style="fill: #1f77b4; fill-opacity: 0.8; stroke: #1f77b4; stroke-opacity: 0.8"/>
     <use xlink:href="#me11f3f9c1e" x="785.092303" y="121.378856" style="fill: #1f77b4; fill-opacity: 0.8; stroke: #1f77b4; stroke-opacity: 0.8"/>
     <use xlink:href="#me11f3f9c1e" x="370.145287" y="229.045341" style="fill: #1f77b4; fill-opacity: 0.8; stroke: #1f77b4; stroke-opacity: 0.8"/>
     <use xlink:href="#me11f3f9c1e" x="473.882041" y="239.139074" style="fill: #1f77b4; fill-opacity: 0.8; stroke: #1f77b4; stroke-opacity: 0.8"/>
     <use xlink:href="#me11f3f9c1e" x="598.366146" y="222.316185" style="fill: #1f77b4; fill-opacity: 0.8; stroke: #1f77b4; stroke-opacity: 0.8"/>
     <use xlink:href="#me11f3f9c1e" x="722.850251" y="84.368501" style="fill: #1f77b4; fill-opacity: 0.8; stroke: #1f77b4; stroke-opacity: 0.8"/>
     <use xlink:href="#me11f3f9c1e" x="411.639989" y="286.243161" style="fill: #1f77b4; fill-opacity: 0.8; stroke: #1f77b4; stroke-opacity: 0.8"/>
     <use xlink:href="#me11f3f9c1e" x="390.892638" y="321.059225" style="fill: #1f77b4; fill-opacity: 0.8; stroke: #1f77b4; stroke-opacity: 0.8"/>
     <use xlink:href="#me11f3f9c1e" x="473.882041" y="259.32654" style="fill: #1f77b4; fill-opacity: 0.8; stroke: #1f77b4; stroke-opacity: 0.8"/>
     <use xlink:href="#me11f3f9c1e" x="536.124094" y="335.870681" style="fill: #1f77b4; fill-opacity: 0.8; stroke: #1f77b4; stroke-opacity: 0.8"/>
     <use xlink:href="#me11f3f9c1e" x="847.334356" y="91.097657" style="fill: #1f77b4; fill-opacity: 0.8; stroke: #1f77b4; stroke-opacity: 0.8"/>
     <use xlink:href="#me11f3f9c1e" x="515.376743" y="323.253515" style="fill: #1f77b4; fill-opacity: 0.8; stroke: #1f77b4; stroke-opacity: 0.8"/>
     <use xlink:href="#me11f3f9c1e" x="556.871445" y="249.232807" style="fill: #1f77b4; fill-opacity: 0.8; stroke: #1f77b4; stroke-opacity: 0.8"/>
     <use xlink:href="#me11f3f9c1e" x="432.38734" y="309.795204" style="fill: #1f77b4; fill-opacity: 0.8; stroke: #1f77b4; stroke-opacity: 0.8"/>
     <use xlink:href="#me11f3f9c1e" x="536.124094" y="383.815913" style="fill: #1f77b4; fill-opacity: 0.8; stroke: #1f77b4; stroke-opacity: 0.8"/>
     <use xlink:href="#me11f3f9c1e" x="370.145287" y="334.468774" style="fill: #1f77b4; fill-opacity: 0.8; stroke: #1f77b4; stroke-opacity: 0.8"/>
     <use xlink:href="#me11f3f9c1e" x="390.892638" y="362.506921" style="fill: #1f77b4; fill-opacity: 0.8; stroke: #1f77b4; stroke-opacity: 0.8"/>
     <use xlink:href="#me11f3f9c1e" x="411.639989" y="351.992616" style="fill: #1f77b4; fill-opacity: 0.8; stroke: #1f77b4; stroke-opacity: 0.8"/>
     <use xlink:href="#me11f3f9c1e" x="556.871445" y="222.316185" style="fill: #1f77b4; fill-opacity: 0.8; stroke: #1f77b4; stroke-opacity: 0.8"/>
     <use xlink:href="#me11f3f9c1e" x="556.871445" y="225.680763" style="fill: #1f77b4; fill-opacity: 0.8; stroke: #1f77b4; stroke-opacity: 0.8"/>
     <use xlink:href="#me11f3f9c1e" x="515.376743" y="239.139074" style="fill: #1f77b4; fill-opacity: 0.8; stroke: #1f77b4; stroke-opacity: 0.8"/>
     <use xlink:href="#me11f3f9c1e" x="453.13469" y="252.597384" style="fill: #1f77b4; fill-opacity: 0.8; stroke: #1f77b4; stroke-opacity: 0.8"/>
     <use xlink:href="#me11f3f9c1e" x="515.376743" y="299.701471" style="fill: #1f77b4; fill-opacity: 0.8; stroke: #1f77b4; stroke-opacity: 0.8"/>
     <use xlink:href="#me11f3f9c1e" x="494.629392" y="313.159782" style="fill: #1f77b4; fill-opacity: 0.8; stroke: #1f77b4; stroke-opacity: 0.8"/>
     <use xlink:href="#me11f3f9c1e" x="390.892638" y="319.888937" style="fill: #1f77b4; fill-opacity: 0.8; stroke: #1f77b4; stroke-opacity: 0.8"/>
     <use xlink:href="#me11f3f9c1e" x="411.639989" y="306.430627" style="fill: #1f77b4; fill-opacity: 0.8; stroke: #1f77b4; stroke-opacity: 0.8"/>
     <use xlink:href="#me11f3f9c1e" x="536.124094" y="252.597384" style="fill: #1f77b4; fill-opacity: 0.8; stroke: #1f77b4; stroke-opacity: 0.8"/>
     <use xlink:href="#me11f3f9c1e" x="536.124094" y="245.868229" style="fill: #1f77b4; fill-opacity: 0.8; stroke: #1f77b4; stroke-opacity: 0.8"/>
     <use xlink:href="#me11f3f9c1e" x="619.113497" y="111.285123" style="fill: #1f77b4; fill-opacity: 0.8; stroke: #1f77b4; stroke-opacity: 0.8"/>
     <use xlink:href="#me11f3f9c1e" x="370.145287" y="285.402016" style="fill: #1f77b4; fill-opacity: 0.8; stroke: #1f77b4; stroke-opacity: 0.8"/>
     <use xlink:href="#me11f3f9c1e" x="619.113497" y="175.212098" style="fill: #1f77b4; fill-opacity: 0.8; stroke: #1f77b4; stroke-opacity: 0.8"/>
     <use xlink:href="#me11f3f9c1e" x="453.13469" y="320.561853" style="fill: #1f77b4; fill-opacity: 0.8; stroke: #1f77b4; stroke-opacity: 0.8"/>
     <use xlink:href="#me11f3f9c1e" x="307.903235" y="303.066049" style="fill: #1f77b4; fill-opacity: 0.8; stroke: #1f77b4; stroke-opacity: 0.8"/>
     <use xlink:href="#me11f3f9c1e" x="453.13469" y="272.78485" style="fill: #1f77b4; fill-opacity: 0.8; stroke: #1f77b4; stroke-opacity: 0.8"/>
     <use xlink:href="#me11f3f9c1e" x="805.839654" y="111.285123" style="fill: #1f77b4; fill-opacity: 0.8; stroke: #1f77b4; stroke-opacity: 0.8"/>
     <use xlink:href="#me11f3f9c1e" x="556.871445" y="192.034986" style="fill: #1f77b4; fill-opacity: 0.8; stroke: #1f77b4; stroke-opacity: 0.8"/>
     <use xlink:href="#me11f3f9c1e" x="453.13469" y="262.691117" style="fill: #1f77b4; fill-opacity: 0.8; stroke: #1f77b4; stroke-opacity: 0.8"/>
     <use xlink:href="#me11f3f9c1e" x="453.13469" y="383.815913" style="fill: #1f77b4; fill-opacity: 0.8; stroke: #1f77b4; stroke-opacity: 0.8"/>
     <use xlink:href="#me11f3f9c1e" x="764.344953" y="124.743433" style="fill: #1f77b4; fill-opacity: 0.8; stroke: #1f77b4; stroke-opacity: 0.8"/>
     <use xlink:href="#me11f3f9c1e" x="577.618795" y="252.597384" style="fill: #1f77b4; fill-opacity: 0.8; stroke: #1f77b4; stroke-opacity: 0.8"/>
     <use xlink:href="#me11f3f9c1e" x="328.650586" y="309.935395" style="fill: #1f77b4; fill-opacity: 0.8; stroke: #1f77b4; stroke-opacity: 0.8"/>
     <use xlink:href="#me11f3f9c1e" x="556.871445" y="232.409918" style="fill: #1f77b4; fill-opacity: 0.8; stroke: #1f77b4; stroke-opacity: 0.8"/>
     <use xlink:href="#me11f3f9c1e" x="349.397936" y="309.795204" style="fill: #1f77b4; fill-opacity: 0.8; stroke: #1f77b4; stroke-opacity: 0.8"/>
     <use xlink:href="#me11f3f9c1e" x="307.903235" y="202.128719" style="fill: #1f77b4; fill-opacity: 0.8; stroke: #1f77b4; stroke-opacity: 0.8"/>
     <use xlink:href="#me11f3f9c1e" x="639.860848" y="151.660054" style="fill: #1f77b4; fill-opacity: 0.8; stroke: #1f77b4; stroke-opacity: 0.8"/>
     <use xlink:href="#me11f3f9c1e" x="577.618795" y="292.972316" style="fill: #1f77b4; fill-opacity: 0.8; stroke: #1f77b4; stroke-opacity: 0.8"/>
     <use xlink:href="#me11f3f9c1e" x="411.639989" y="380.030763" style="fill: #1f77b4; fill-opacity: 0.8; stroke: #1f77b4; stroke-opacity: 0.8"/>
    </g>
   </g>
   <g id="PolyCollection_1">
    <path d="M 173.045455 381.809761 
L 173.045455 425.13264 
L 180.731405 421.719755 
L 188.417355 418.38549 
L 196.103306 415.03823 
L 203.789256 411.638169 
L 211.475207 408.283467 
L 219.161157 404.964871 
L 226.847107 401.628841 
L 234.533058 398.290731 
L 242.219008 394.95591 
L 249.904959 391.584415 
L 257.590909 388.244645 
L 265.27686 384.944189 
L 272.96281 381.60615 
L 280.64876 378.273981 
L 288.334711 374.95984 
L 296.020661 371.602781 
L 303.706612 368.268545 
L 311.392562 364.927178 
L 319.078512 361.563887 
L 326.764463 358.209064 
L 334.450413 354.770886 
L 342.136364 351.580567 
L 349.822314 348.260756 
L 357.508264 345.025519 
L 365.194215 341.726163 
L 372.880165 338.25975 
L 380.566116 334.899238 
L 388.252066 331.56095 
L 395.938017 328.324604 
L 403.623967 324.946089 
L 411.309917 321.788088 
L 418.995868 318.503302 
L 426.681818 315.200874 
L 434.367769 311.835177 
L 442.053719 308.66287 
L 449.739669 305.463278 
L 457.42562 302.205632 
L 465.11157 298.976659 
L 472.797521 295.943284 
L 480.483471 292.984749 
L 488.169421 290.146488 
L 495.855372 287.147735 
L 503.541322 284.327734 
L 511.227273 281.618075 
L 518.913223 278.708037 
L 526.599174 275.956837 
L 534.285124 273.119955 
L 541.971074 270.283604 
L 549.657025 267.482918 
L 557.342975 264.627727 
L 565.028926 261.835949 
L 572.714876 259.056485 
L 580.400826 256.391285 
L 588.086777 253.622256 
L 595.772727 250.982353 
L 603.458678 248.234436 
L 611.144628 245.563729 
L 618.830579 242.825639 
L 626.516529 240.25897 
L 634.202479 237.810305 
L 641.88843 235.301865 
L 649.57438 232.753714 
L 657.260331 230.192727 
L 664.946281 227.657974 
L 672.632231 225.070664 
L 680.318182 222.50775 
L 688.004132 219.889953 
L 695.690083 217.369929 
L 703.376033 214.724874 
L 711.061983 212.115482 
L 718.747934 209.507916 
L 726.433884 206.909901 
L 734.119835 204.354342 
L 741.805785 201.903509 
L 749.491736 199.450656 
L 757.177686 196.89454 
L 764.863636 194.332923 
L 772.549587 191.771059 
L 780.235537 189.141713 
L 787.921488 186.495066 
L 795.607438 183.847981 
L 803.293388 181.245311 
L 810.979339 178.549245 
L 818.665289 175.988163 
L 826.35124 173.589614 
L 834.03719 171.056953 
L 841.72314 168.500616 
L 849.409091 165.942153 
L 857.095041 163.383691 
L 864.780992 160.862825 
L 872.466942 158.342148 
L 880.152893 155.820967 
L 887.838843 153.299628 
L 895.524793 150.717057 
L 903.210744 148.13008 
L 910.896694 145.637603 
L 918.582645 143.107317 
L 926.268595 140.546982 
L 933.954545 137.986646 
L 933.954545 81.354113 
L 933.954545 81.354113 
L 926.268595 84.813044 
L 918.582645 88.205736 
L 910.896694 91.598627 
L 903.210744 94.992046 
L 895.524793 98.432391 
L 887.838843 101.911401 
L 880.152893 105.390829 
L 872.466942 108.870256 
L 864.780992 112.350109 
L 857.095041 115.831151 
L 849.409091 119.200324 
L 841.72314 122.560391 
L 834.03719 125.975914 
L 826.35124 129.424233 
L 818.665289 132.872552 
L 810.979339 136.321072 
L 803.293388 139.76987 
L 795.607438 143.218669 
L 787.921488 146.596415 
L 780.235537 149.898905 
L 772.549587 153.202144 
L 764.863636 156.50742 
L 757.177686 159.812696 
L 749.491736 163.248097 
L 741.805785 166.715788 
L 734.119835 170.148193 
L 726.433884 173.485856 
L 718.747934 176.823519 
L 711.061983 180.250541 
L 703.376033 183.70648 
L 695.690083 187.166352 
L 688.004132 190.507279 
L 680.318182 193.814556 
L 672.632231 197.12706 
L 664.946281 200.439564 
L 657.260331 203.752333 
L 649.57438 207.066254 
L 641.88843 210.333511 
L 634.202479 213.68404 
L 626.516529 216.994723 
L 618.830579 220.172408 
L 611.144628 223.472454 
L 603.458678 226.841921 
L 595.772727 230.17509 
L 588.086777 233.468205 
L 580.400826 236.816993 
L 572.714876 240.176199 
L 565.028926 243.476579 
L 557.342975 246.747411 
L 549.657025 249.85416 
L 541.971074 252.917397 
L 534.285124 255.966438 
L 526.599174 258.889877 
L 518.913223 262.099367 
L 511.227273 265.157128 
L 503.541322 268.074563 
L 495.855372 271.092282 
L 488.169421 274.01023 
L 480.483471 276.95429 
L 472.797521 279.890421 
L 465.11157 282.676347 
L 457.42562 285.652079 
L 449.739669 288.579603 
L 442.053719 291.478808 
L 434.367769 294.157829 
L 426.681818 296.978955 
L 418.995868 299.719453 
L 411.309917 302.533502 
L 403.623967 305.328433 
L 395.938017 307.862238 
L 388.252066 310.487042 
L 380.566116 312.894995 
L 372.880165 315.668574 
L 365.194215 318.482762 
L 357.508264 321.258172 
L 349.822314 323.819319 
L 342.136364 326.392858 
L 334.450413 328.92763 
L 326.764463 331.595339 
L 319.078512 334.157946 
L 311.392562 336.672011 
L 303.706612 339.363434 
L 296.020661 341.687196 
L 288.334711 344.189234 
L 280.64876 346.695289 
L 272.96281 349.203138 
L 265.27686 351.670685 
L 257.590909 354.086307 
L 249.904959 356.501928 
L 242.219008 359.047051 
L 234.533058 361.693049 
L 226.847107 364.252349 
L 219.161157 366.76055 
L 211.475207 369.268752 
L 203.789256 371.776954 
L 196.103306 374.285156 
L 188.417355 376.793357 
L 180.731405 379.301559 
L 173.045455 381.809761 
z
" clip-path="url(#p12a23d1aca)" style="fill: #ff0000; fill-opacity: 0.15"/>
   </g>
   <g id="matplotlib.axis_1">
    <g id="xtick_1">
     <g id="line2d_1">
      <defs>
       <path id="mcb8d6b9336" d="M 0 0 
L 0 3.5 
" style="stroke: #000000; stroke-width: 0.8"/>
      </defs>
      <g>
       <use xlink:href="#mcb8d6b9336" x="173.045455" y="448.56" style="stroke: #000000; stroke-width: 0.8"/>
      </g>
     </g>
     <g id="text_1">
      <text style="font: 10px 'DejaVu Sans', 'Bitstream Vera Sans', 'Computer Modern Sans Serif', 'Lucida Grande', 'Verdana', 'Geneva', 'Lucid', 'Arial', 'Helvetica', 'Avant Garde', sans-serif; text-anchor: middle" x="173.045455" y="463.158437" transform="rotate(-0 173.045455 463.158437)">3.75</text>
     </g>
    </g>
    <g id="xtick_2">
     <g id="line2d_2">
      <g>
       <use xlink:href="#mcb8d6b9336" x="266.408533" y="448.56" style="stroke: #000000; stroke-width: 0.8"/>
      </g>
     </g>
     <g id="text_2">
      <text style="font: 10px 'DejaVu Sans', 'Bitstream Vera Sans', 'Computer Modern Sans Serif', 'Lucida Grande', 'Verdana', 'Geneva', 'Lucid', 'Arial', 'Helvetica', 'Avant Garde', sans-serif; text-anchor: middle" x="266.408533" y="463.158437" transform="rotate(-0 266.408533 463.158437)">4.00</text>
     </g>
    </g>
    <g id="xtick_3">
     <g id="line2d_3">
      <g>
       <use xlink:href="#mcb8d6b9336" x="359.771612" y="448.56" style="stroke: #000000; stroke-width: 0.8"/>
      </g>
     </g>
     <g id="text_3">
      <text style="font: 10px 'DejaVu Sans', 'Bitstream Vera Sans', 'Computer Modern Sans Serif', 'Lucida Grande', 'Verdana', 'Geneva', 'Lucid', 'Arial', 'Helvetica', 'Avant Garde', sans-serif; text-anchor: middle" x="359.771612" y="463.158437" transform="rotate(-0 359.771612 463.158437)">4.25</text>
     </g>
    </g>
    <g id="xtick_4">
     <g id="line2d_4">
      <g>
       <use xlink:href="#mcb8d6b9336" x="453.13469" y="448.56" style="stroke: #000000; stroke-width: 0.8"/>
      </g>
     </g>
     <g id="text_4">
      <text style="font: 10px 'DejaVu Sans', 'Bitstream Vera Sans', 'Computer Modern Sans Serif', 'Lucida Grande', 'Verdana', 'Geneva', 'Lucid', 'Arial', 'Helvetica', 'Avant Garde', sans-serif; text-anchor: middle" x="453.13469" y="463.158437" transform="rotate(-0 453.13469 463.158437)">4.50</text>
     </g>
    </g>
    <g id="xtick_5">
     <g id="line2d_5">
      <g>
       <use xlink:href="#mcb8d6b9336" x="546.497769" y="448.56" style="stroke: #000000; stroke-width: 0.8"/>
      </g>
     </g>
     <g id="text_5">
      <text style="font: 10px 'DejaVu Sans', 'Bitstream Vera Sans', 'Computer Modern Sans Serif', 'Lucida Grande', 'Verdana', 'Geneva', 'Lucid', 'Arial', 'Helvetica', 'Avant Garde', sans-serif; text-anchor: middle" x="546.497769" y="463.158437" transform="rotate(-0 546.497769 463.158437)">4.75</text>
     </g>
    </g>
    <g id="xtick_6">
     <g id="line2d_6">
      <g>
       <use xlink:href="#mcb8d6b9336" x="639.860848" y="448.56" style="stroke: #000000; stroke-width: 0.8"/>
      </g>
     </g>
     <g id="text_6">
      <text style="font: 10px 'DejaVu Sans', 'Bitstream Vera Sans', 'Computer Modern Sans Serif', 'Lucida Grande', 'Verdana', 'Geneva', 'Lucid', 'Arial', 'Helvetica', 'Avant Garde', sans-serif; text-anchor: middle" x="639.860848" y="463.158437" transform="rotate(-0 639.860848 463.158437)">5.00</text>
     </g>
    </g>
    <g id="xtick_7">
     <g id="line2d_7">
      <g>
       <use xlink:href="#mcb8d6b9336" x="733.223926" y="448.56" style="stroke: #000000; stroke-width: 0.8"/>
      </g>
     </g>
     <g id="text_7">
      <text style="font: 10px 'DejaVu Sans', 'Bitstream Vera Sans', 'Computer Modern Sans Serif', 'Lucida Grande', 'Verdana', 'Geneva', 'Lucid', 'Arial', 'Helvetica', 'Avant Garde', sans-serif; text-anchor: middle" x="733.223926" y="463.158437" transform="rotate(-0 733.223926 463.158437)">5.25</text>
     </g>
    </g>
    <g id="xtick_8">
     <g id="line2d_8">
      <g>
       <use xlink:href="#mcb8d6b9336" x="826.587005" y="448.56" style="stroke: #000000; stroke-width: 0.8"/>
      </g>
     </g>
     <g id="text_8">
      <text style="font: 10px 'DejaVu Sans', 'Bitstream Vera Sans', 'Computer Modern Sans Serif', 'Lucida Grande', 'Verdana', 'Geneva', 'Lucid', 'Arial', 'Helvetica', 'Avant Garde', sans-serif; text-anchor: middle" x="826.587005" y="463.158437" transform="rotate(-0 826.587005 463.158437)">5.50</text>
     </g>
    </g>
    <g id="xtick_9">
     <g id="line2d_9">
      <g>
       <use xlink:href="#mcb8d6b9336" x="919.950084" y="448.56" style="stroke: #000000; stroke-width: 0.8"/>
      </g>
     </g>
     <g id="text_9">
      <text style="font: 10px 'DejaVu Sans', 'Bitstream Vera Sans', 'Computer Modern Sans Serif', 'Lucida Grande', 'Verdana', 'Geneva', 'Lucid', 'Arial', 'Helvetica', 'Avant Garde', sans-serif; text-anchor: middle" x="919.950084" y="463.158437" transform="rotate(-0 919.950084 463.158437)">5.75</text>
     </g>
    </g>
    <g id="text_10">
     <text style="font: 10px 'DejaVu Sans', 'Bitstream Vera Sans', 'Computer Modern Sans Serif', 'Lucida Grande', 'Verdana', 'Geneva', 'Lucid', 'Arial', 'Helvetica', 'Avant Garde', sans-serif; text-anchor: middle" x="553.5" y="476.836563" transform="rotate(-0 553.5 476.836563)">Noten BMS</text>
    </g>
   </g>
   <g id="matplotlib.axis_2">
    <g id="ytick_1">
     <g id="line2d_10">
      <defs>
       <path id="md1887e84de" d="M 0 0 
L -3.5 0 
" style="stroke: #000000; stroke-width: 0.8"/>
      </defs>
      <g>
       <use xlink:href="#md1887e84de" x="135" y="390.545068" style="stroke: #000000; stroke-width: 0.8"/>
      </g>
     </g>
     <g id="text_11">
      <text style="font: 10px 'DejaVu Sans', 'Bitstream Vera Sans', 'Computer Modern Sans Serif', 'Lucida Grande', 'Verdana', 'Geneva', 'Lucid', 'Arial', 'Helvetica', 'Avant Garde', sans-serif; text-anchor: end" x="128" y="394.344287" transform="rotate(-0 128 394.344287)">4.0</text>
     </g>
    </g>
    <g id="ytick_2">
     <g id="line2d_11">
      <g>
       <use xlink:href="#md1887e84de" x="135" y="306.430627" style="stroke: #000000; stroke-width: 0.8"/>
      </g>
     </g>
     <g id="text_12">
      <text style="font: 10px 'DejaVu Sans', 'Bitstream Vera Sans', 'Computer Modern Sans Serif', 'Lucida Grande', 'Verdana', 'Geneva', 'Lucid', 'Arial', 'Helvetica', 'Avant Garde', sans-serif; text-anchor: end" x="128" y="310.229845" transform="rotate(-0 128 310.229845)">4.5</text>
     </g>
    </g>
    <g id="ytick_3">
     <g id="line2d_12">
      <g>
       <use xlink:href="#md1887e84de" x="135" y="222.316185" style="stroke: #000000; stroke-width: 0.8"/>
      </g>
     </g>
     <g id="text_13">
      <text style="font: 10px 'DejaVu Sans', 'Bitstream Vera Sans', 'Computer Modern Sans Serif', 'Lucida Grande', 'Verdana', 'Geneva', 'Lucid', 'Arial', 'Helvetica', 'Avant Garde', sans-serif; text-anchor: end" x="128" y="226.115404" transform="rotate(-0 128 226.115404)">5.0</text>
     </g>
    </g>
    <g id="ytick_4">
     <g id="line2d_13">
      <g>
       <use xlink:href="#md1887e84de" x="135" y="138.201744" style="stroke: #000000; stroke-width: 0.8"/>
      </g>
     </g>
     <g id="text_14">
      <text style="font: 10px 'DejaVu Sans', 'Bitstream Vera Sans', 'Computer Modern Sans Serif', 'Lucida Grande', 'Verdana', 'Geneva', 'Lucid', 'Arial', 'Helvetica', 'Avant Garde', sans-serif; text-anchor: end" x="128" y="142.000963" transform="rotate(-0 128 142.000963)">5.5</text>
     </g>
    </g>
    <g id="text_15">
     <text style="font: 10px 'DejaVu Sans', 'Bitstream Vera Sans', 'Computer Modern Sans Serif', 'Lucida Grande', 'Verdana', 'Geneva', 'Lucid', 'Arial', 'Helvetica', 'Avant Garde', sans-serif; text-anchor: middle" x="106.017187" y="254.52" transform="rotate(-90 106.017187 254.52)">Noten EFZ</text>
    </g>
   </g>
   <g id="line2d_14">
    <path d="M 173.045455 403.694659 
L 180.731405 400.725656 
L 188.417355 397.756653 
L 196.103306 394.78765 
L 203.789256 391.818648 
L 211.475207 388.849645 
L 219.161157 385.880642 
L 226.847107 382.91164 
L 234.533058 379.942637 
L 242.219008 376.973634 
L 249.904959 374.004631 
L 257.590909 371.035629 
L 265.27686 368.066626 
L 272.96281 365.097623 
L 280.64876 362.12862 
L 288.334711 359.159618 
L 296.020661 356.190615 
L 303.706612 353.221612 
L 311.392562 350.25261 
L 319.078512 347.283607 
L 326.764463 344.314604 
L 334.450413 341.345601 
L 342.136364 338.376599 
L 349.822314 335.407596 
L 357.508264 332.438593 
L 365.194215 329.469591 
L 372.880165 326.500588 
L 380.566116 323.531585 
L 388.252066 320.562582 
L 395.938017 317.59358 
L 403.623967 314.624577 
L 411.309917 311.655574 
L 418.995868 308.686571 
L 426.681818 305.717569 
L 434.367769 302.748566 
L 442.053719 299.779563 
L 449.739669 296.810561 
L 457.42562 293.841558 
L 465.11157 290.872555 
L 472.797521 287.903552 
L 480.483471 284.93455 
L 488.169421 281.965547 
L 495.855372 278.996544 
L 503.541322 276.027542 
L 511.227273 273.058539 
L 518.913223 270.089536 
L 526.599174 267.120533 
L 534.285124 264.151531 
L 541.971074 261.182528 
L 549.657025 258.213525 
L 557.342975 255.244522 
L 565.028926 252.27552 
L 572.714876 249.306517 
L 580.400826 246.337514 
L 588.086777 243.368512 
L 595.772727 240.399509 
L 603.458678 237.430506 
L 611.144628 234.461503 
L 618.830579 231.492501 
L 626.516529 228.523498 
L 634.202479 225.554495 
L 641.88843 222.585493 
L 649.57438 219.61649 
L 657.260331 216.647487 
L 664.946281 213.678484 
L 672.632231 210.709482 
L 680.318182 207.740479 
L 688.004132 204.771476 
L 695.690083 201.802474 
L 703.376033 198.833471 
L 711.061983 195.864468 
L 718.747934 192.895465 
L 726.433884 189.926463 
L 734.119835 186.95746 
L 741.805785 183.988457 
L 749.491736 181.019454 
L 757.177686 178.050452 
L 764.863636 175.081449 
L 772.549587 172.112446 
L 780.235537 169.143444 
L 787.921488 166.174441 
L 795.607438 163.205438 
L 803.293388 160.236435 
L 810.979339 157.267433 
L 818.665289 154.29843 
L 826.35124 151.329427 
L 834.03719 148.360425 
L 841.72314 145.391422 
L 849.409091 142.422419 
L 857.095041 139.453416 
L 864.780992 136.484414 
L 872.466942 133.515411 
L 880.152893 130.546408 
L 887.838843 127.577405 
L 895.524793 124.608403 
L 903.210744 121.6394 
L 910.896694 118.670397 
L 918.582645 115.701395 
L 926.268595 112.732392 
L 933.954545 109.763389 
" clip-path="url(#p12a23d1aca)" style="fill: none; stroke: #ff0000; stroke-width: 2.25; stroke-linecap: square"/>
   </g>
   <g id="patch_3">
    <path d="M 135 448.56 
L 135 60.48 
" style="fill: none; stroke: #000000; stroke-width: 0.8; stroke-linejoin: miter; stroke-linecap: square"/>
   </g>
   <g id="patch_4">
    <path d="M 972 448.56 
L 972 60.48 
" style="fill: none; stroke: #000000; stroke-width: 0.8; stroke-linejoin: miter; stroke-linecap: square"/>
   </g>
   <g id="patch_5">
    <path d="M 135 448.56 
L 972 448.56 
" style="fill: none; stroke: #000000; stroke-width: 0.8; stroke-linejoin: miter; stroke-linecap: square"/>
   </g>
   <g id="patch_6">
    <path d="M 135 60.48 
L 972 60.48 
" style="fill: none; stroke: #000000; stroke-width: 0.8; stroke-linejoin: miter; stroke-linecap: square"/>
   </g>
   <g id="text_16">
    <text style="font: 12px 'DejaVu Sans', 'Bitstream Vera Sans', 'Computer Modern Sans Serif', 'Lucida Grande', 'Verdana', 'Geneva', 'Lucid', 'Arial', 'Helvetica', 'Avant Garde', sans-serif; text-anchor: middle" x="553.5" y="54.48" transform="rotate(-0 553.5 54.48)">Korrelation BMS - EFZ</text>
   </g>
  </g>
 </g>
 <defs>
  <clipPath id="p12a23d1aca">
   <rect x="135" y="60.48" width="837" height="388.08"/>
  </clipPath>
 </defs>
</svg>
