<?xml version="1.0" encoding="utf-8" standalone="no"?>
<!DOCTYPE svg PUBLIC "-//W3C//DTD SVG 1.1//EN"
  "http://www.w3.org/Graphics/SVG/1.1/DTD/svg11.dtd">
<svg xmlns:xlink="http://www.w3.org/1999/xlink" width="572.4pt" height="140.398125pt" viewBox="0 0 572.4 140.398125" xmlns="http://www.w3.org/2000/svg" version="1.1">
 <metadata>
  <rdf:RDF xmlns:dc="http://purl.org/dc/elements/1.1/" xmlns:cc="http://creativecommons.org/ns#" xmlns:rdf="http://www.w3.org/1999/02/22-rdf-syntax-ns#">
   <cc:Work>
    <dc:type rdf:resource="http://purl.org/dc/dcmitype/StillImage"/>
    <dc:date>2024-09-12T07:08:12.142618</dc:date>
    <dc:format>image/svg+xml</dc:format>
    <dc:creator>
     <cc:Agent>
      <dc:title>Matplotlib v3.9.1, https://matplotlib.org/</dc:title>
     </cc:Agent>
    </dc:creator>
   </cc:Work>
  </rdf:RDF>
 </metadata>
 <defs>
  <style type="text/css">*{stroke-linejoin: round; stroke-linecap: butt}</style>
 </defs>
 <g id="figure_1">
  <g id="patch_1">
   <path d="M 0 140.398125 
L 572.4 140.398125 
L 572.4 0 
L 0 0 
L 0 140.398125 
z
" style="fill: none; opacity: 0"/>
  </g>
  <g id="axes_1">
   <g id="patch_2">
    <path d="M 7.2 133.198125 
L 14.377495 133.198125 
L 14.377495 22.318125 
L 7.2 22.318125 
z
" clip-path="url(#pa7a8c099c4)" style="fill: #808080; stroke: #0000ff; stroke-linejoin: miter"/>
   </g>
   <g id="patch_3">
    <path d="M 15.458059 133.198125 
L 24.796682 133.198125 
L 24.796682 22.318125 
L 15.458059 22.318125 
z
" clip-path="url(#pa7a8c099c4)" style="fill: #808080; stroke: #0000ff; stroke-linejoin: miter"/>
   </g>
   <g id="patch_4">
    <path d="M 26.613082 133.198125 
L 39.584505 133.198125 
L 39.584505 22.318125 
L 26.613082 22.318125 
z
" clip-path="url(#pa7a8c099c4)" style="fill: #ccf4cc; stroke: #0000ff; stroke-linejoin: miter"/>
   </g>
   <g id="patch_5">
    <path d="M 39.689887 133.198125 
L 52.872074 133.198125 
L 52.872074 22.318125 
L 39.689887 22.318125 
z
" clip-path="url(#pa7a8c099c4)" style="fill: #caf3ca; stroke: #0000ff; stroke-linejoin: miter"/>
   </g>
   <g id="patch_6">
    <path d="M 53.879888 133.198125 
L 69.077703 133.198125 
L 69.077703 22.318125 
L 53.879888 22.318125 
z
" clip-path="url(#pa7a8c099c4)" style="fill: #b6eeb6; stroke: #0000ff; stroke-linejoin: miter"/>
   </g>
   <g id="patch_7">
    <path d="M 69.513915 133.198125 
L 85.584154 133.198125 
L 85.584154 22.318125 
L 69.513915 22.318125 
z
" clip-path="url(#pa7a8c099c4)" style="fill: #808080; stroke: #0000ff; stroke-linejoin: miter"/>
   </g>
   <g id="patch_8">
    <path d="M 86.140706 133.198125 
L 103.324049 133.198125 
L 103.324049 22.318125 
L 86.140706 22.318125 
z
" clip-path="url(#pa7a8c099c4)" style="fill: #808080; stroke: #0000ff; stroke-linejoin: miter"/>
   </g>
   <g id="patch_9">
    <path d="M 103.335313 133.198125 
L 120.541182 133.198125 
L 120.541182 22.318125 
L 103.335313 22.318125 
z
" clip-path="url(#pa7a8c099c4)" style="fill: #a2e9a2; stroke: #0000ff; stroke-linejoin: miter"/>
   </g>
   <g id="patch_10">
    <path d="M 120.587093 133.198125 
L 137.884786 133.198125 
L 137.884786 22.318125 
L 120.587093 22.318125 
z
" clip-path="url(#pa7a8c099c4)" style="fill: #808080; stroke: #0000ff; stroke-linejoin: miter"/>
   </g>
   <g id="patch_11">
    <path d="M 137.969324 133.198125 
L 155.436092 133.198125 
L 155.436092 22.318125 
L 137.969324 22.318125 
z
" clip-path="url(#pa7a8c099c4)" style="fill: #808080; stroke: #0000ff; stroke-linejoin: miter"/>
   </g>
   <g id="patch_12">
    <path d="M 155.485477 133.198125 
L 173.051016 133.198125 
L 173.051016 22.318125 
L 155.485477 22.318125 
z
" clip-path="url(#pa7a8c099c4)" style="fill: #808080; stroke: #0000ff; stroke-linejoin: miter"/>
   </g>
   <g id="patch_13">
    <path d="M 173.141672 133.198125 
L 190.888522 133.198125 
L 190.888522 22.318125 
L 173.141672 22.318125 
z
" clip-path="url(#pa7a8c099c4)" style="fill: #9ee89e; stroke: #0000ff; stroke-linejoin: miter"/>
   </g>
   <g id="patch_14">
    <path d="M 190.920047 133.198125 
L 208.729946 133.198125 
L 208.729946 22.318125 
L 190.920047 22.318125 
z
" clip-path="url(#pa7a8c099c4)" style="fill: #808080; stroke: #0000ff; stroke-linejoin: miter"/>
   </g>
   <g id="patch_15">
    <path d="M 208.795145 133.198125 
L 226.735443 133.198125 
L 226.735443 22.318125 
L 208.795145 22.318125 
z
" clip-path="url(#pa7a8c099c4)" style="fill: #808080; stroke: #0000ff; stroke-linejoin: miter"/>
   </g>
   <g id="patch_16">
    <path d="M 226.795438 133.198125 
L 244.855724 133.198125 
L 244.855724 22.318125 
L 226.795438 22.318125 
z
" clip-path="url(#pa7a8c099c4)" style="fill: #808080; stroke: #0000ff; stroke-linejoin: miter"/>
   </g>
   <g id="patch_17">
    <path d="M 245.182878 133.198125 
L 263.897471 133.198125 
L 263.897471 22.318125 
L 245.182878 22.318125 
z
" clip-path="url(#pa7a8c099c4)" style="fill: #94e694; stroke: #0000ff; stroke-linejoin: miter"/>
   </g>
   <g id="patch_18">
    <path d="M 264.046267 133.198125 
L 283.058453 133.198125 
L 283.058453 22.318125 
L 264.046267 22.318125 
z
" clip-path="url(#pa7a8c099c4)" style="fill: #90e590; stroke: #0000ff; stroke-linejoin: miter"/>
   </g>
   <g id="patch_19">
    <path d="M 283.071652 133.198125 
L 302.110235 133.198125 
L 302.110235 22.318125 
L 283.071652 22.318125 
z
" clip-path="url(#pa7a8c099c4)" style="fill: #808080; stroke: #0000ff; stroke-linejoin: miter"/>
   </g>
   <g id="patch_20">
    <path d="M 302.162296 133.198125 
L 321.305003 133.198125 
L 321.305003 22.318125 
L 302.162296 22.318125 
z
" clip-path="url(#pa7a8c099c4)" style="fill: #8fe58f; stroke: #0000ff; stroke-linejoin: miter"/>
   </g>
   <g id="patch_21">
    <path d="M 321.385826 133.198125 
L 340.69018 133.198125 
L 340.69018 22.318125 
L 321.385826 22.318125 
z
" clip-path="url(#pa7a8c099c4)" style="fill: #808080; stroke: #0000ff; stroke-linejoin: miter"/>
   </g>
   <g id="patch_22">
    <path d="M 340.70029 133.198125 
L 360.024864 133.198125 
L 360.024864 22.318125 
L 340.70029 22.318125 
z
" clip-path="url(#pa7a8c099c4)" style="fill: #8de48d; stroke: #0000ff; stroke-linejoin: miter"/>
   </g>
   <g id="patch_23">
    <path d="M 360.053668 133.198125 
L 379.43585 133.198125 
L 379.43585 22.318125 
L 360.053668 22.318125 
z
" clip-path="url(#pa7a8c099c4)" style="fill: #808080; stroke: #0000ff; stroke-linejoin: miter"/>
   </g>
   <g id="patch_24">
    <path d="M 379.666753 133.198125 
L 399.510741 133.198125 
L 399.510741 22.318125 
L 379.666753 22.318125 
z
" clip-path="url(#pa7a8c099c4)" style="fill: #808080; stroke: #0000ff; stroke-linejoin: miter"/>
   </g>
   <g id="patch_25">
    <path d="M 399.956913 133.198125 
L 420.693246 133.198125 
L 420.693246 22.318125 
L 399.956913 22.318125 
z
" clip-path="url(#pa7a8c099c4)" style="fill: #80e180; stroke: #0000ff; stroke-linejoin: miter"/>
   </g>
   <g id="patch_26">
    <path d="M 420.940612 133.198125 
L 442.171678 133.198125 
L 442.171678 22.318125 
L 420.940612 22.318125 
z
" clip-path="url(#pa7a8c099c4)" style="fill: #7adf7a; stroke: #0000ff; stroke-linejoin: miter"/>
   </g>
   <g id="patch_27">
    <path d="M 442.27765 133.198125 
L 463.720658 133.198125 
L 463.720658 22.318125 
L 442.27765 22.318125 
z
" clip-path="url(#pa7a8c099c4)" style="fill: #78df78; stroke: #0000ff; stroke-linejoin: miter"/>
   </g>
   <g id="patch_28">
    <path d="M 464.448955 133.198125 
L 487.348557 133.198125 
L 487.348557 22.318125 
L 464.448955 22.318125 
z
" clip-path="url(#pa7a8c099c4)" style="fill: #69db69; stroke: #0000ff; stroke-linejoin: miter"/>
   </g>
   <g id="patch_29">
    <path d="M 487.607361 133.198125 
L 511.024572 133.198125 
L 511.024572 22.318125 
L 487.607361 22.318125 
z
" clip-path="url(#pa7a8c099c4)" style="fill: #65da65; stroke: #0000ff; stroke-linejoin: miter"/>
   </g>
   <g id="patch_30">
    <path d="M 511.656946 133.198125 
L 536.338906 133.198125 
L 536.338906 22.318125 
L 511.656946 22.318125 
z
" clip-path="url(#pa7a8c099c4)" style="fill: #808080; stroke: #0000ff; stroke-linejoin: miter"/>
   </g>
   <g id="patch_31">
    <path d="M 537.452331 133.198125 
L 564.36114 133.198125 
L 564.36114 22.318125 
L 537.452331 22.318125 
z
" clip-path="url(#pa7a8c099c4)" style="fill: #808080; stroke: #0000ff; stroke-linejoin: miter"/>
   </g>
   <g id="patch_32">
    <path d="M 565.2 133.198125 
L 593.78653 133.198125 
L 593.78653 22.318125 
L 565.2 22.318125 
z
" clip-path="url(#pa7a8c099c4)" style="fill: #808080; stroke: #0000ff; stroke-linejoin: miter"/>
   </g>
   <g id="text_1">
    <text style="font: 12px 'DejaVu Sans', 'Bitstream Vera Sans', 'Computer Modern Sans Serif', 'Lucida Grande', 'Verdana', 'Geneva', 'Lucid', 'Arial', 'Helvetica', 'Avant Garde', sans-serif; text-anchor: middle" x="286.2" y="16.318125" transform="rotate(-0 286.2 16.318125)">WR, GuP, TU</text>
   </g>
  </g>
 </g>
 <defs>
  <clipPath id="pa7a8c099c4">
   <rect x="7.2" y="22.318125" width="558" height="110.88"/>
  </clipPath>
 </defs>
</svg>
