<?xml version="1.0" encoding="utf-8" standalone="no"?>
<!DOCTYPE svg PUBLIC "-//W3C//DTD SVG 1.1//EN"
  "http://www.w3.org/Graphics/SVG/1.1/DTD/svg11.dtd">
<svg xmlns:xlink="http://www.w3.org/1999/xlink" width="864pt" height="432pt" viewBox="0 0 864 432" xmlns="http://www.w3.org/2000/svg" version="1.1">
 <metadata>
  <rdf:RDF xmlns:dc="http://purl.org/dc/elements/1.1/" xmlns:cc="http://creativecommons.org/ns#" xmlns:rdf="http://www.w3.org/1999/02/22-rdf-syntax-ns#">
   <cc:Work>
    <dc:type rdf:resource="http://purl.org/dc/dcmitype/StillImage"/>
    <dc:date>2024-07-29T11:21:07.941306</dc:date>
    <dc:format>image/svg+xml</dc:format>
    <dc:creator>
     <cc:Agent>
      <dc:title>Matplotlib v3.9.1, https://matplotlib.org/</dc:title>
     </cc:Agent>
    </dc:creator>
   </cc:Work>
  </rdf:RDF>
 </metadata>
 <defs>
  <style type="text/css">*{stroke-linejoin: round; stroke-linecap: butt}</style>
 </defs>
 <g id="figure_1">
  <g id="patch_1">
   <path d="M 0 432 
L 864 432 
L 864 0 
L 0 0 
z
" style="fill: #ffffff"/>
  </g>
  <g id="axes_1">
   <g id="patch_2">
    <path d="M 38.27 390.04 
L 853.2 390.04 
L 853.2 26.88 
L 38.27 26.88 
z
" style="fill: #ffffff"/>
   </g>
   <g id="matplotlib.axis_1">
    <g id="xtick_1">
     <g id="line2d_1">
      <defs>
       <path id="mee811b990f" d="M 0 0 
L 0 3.5 
" style="stroke: #000000; stroke-width: 0.8"/>
      </defs>
      <g>
       <use xlink:href="#mee811b990f" x="106.180833" y="390.04" style="stroke: #000000; stroke-width: 0.8"/>
      </g>
     </g>
     <g id="text_1">
      <!-- HS 14 -->
      <g transform="translate(91.294896 404.638438) scale(0.1 -0.1)">
       <defs>
        <path id="DejaVuSans-48" d="M 628 4666 
L 1259 4666 
L 1259 2753 
L 3553 2753 
L 3553 4666 
L 4184 4666 
L 4184 0 
L 3553 0 
L 3553 2222 
L 1259 2222 
L 1259 0 
L 628 0 
L 628 4666 
z
" transform="scale(0.015625)"/>
        <path id="DejaVuSans-53" d="M 3425 4513 
L 3425 3897 
Q 3066 4069 2747 4153 
Q 2428 4238 2131 4238 
Q 1616 4238 1336 4038 
Q 1056 3838 1056 3469 
Q 1056 3159 1242 3001 
Q 1428 2844 1947 2747 
L 2328 2669 
Q 3034 2534 3370 2195 
Q 3706 1856 3706 1288 
Q 3706 609 3251 259 
Q 2797 -91 1919 -91 
Q 1588 -91 1214 -16 
Q 841 59 441 206 
L 441 856 
Q 825 641 1194 531 
Q 1563 422 1919 422 
Q 2459 422 2753 634 
Q 3047 847 3047 1241 
Q 3047 1584 2836 1778 
Q 2625 1972 2144 2069 
L 1759 2144 
Q 1053 2284 737 2584 
Q 422 2884 422 3419 
Q 422 4038 858 4394 
Q 1294 4750 2059 4750 
Q 2388 4750 2728 4690 
Q 3069 4631 3425 4513 
z
" transform="scale(0.015625)"/>
        <path id="DejaVuSans-20" transform="scale(0.015625)"/>
        <path id="DejaVuSans-31" d="M 794 531 
L 1825 531 
L 1825 4091 
L 703 3866 
L 703 4441 
L 1819 4666 
L 2450 4666 
L 2450 531 
L 3481 531 
L 3481 0 
L 794 0 
L 794 531 
z
" transform="scale(0.015625)"/>
        <path id="DejaVuSans-34" d="M 2419 4116 
L 825 1625 
L 2419 1625 
L 2419 4116 
z
M 2253 4666 
L 3047 4666 
L 3047 1625 
L 3713 1625 
L 3713 1100 
L 3047 1100 
L 3047 0 
L 2419 0 
L 2419 1100 
L 313 1100 
L 313 1709 
L 2253 4666 
z
" transform="scale(0.015625)"/>
       </defs>
       <use xlink:href="#DejaVuSans-48"/>
       <use xlink:href="#DejaVuSans-53" x="75.195312"/>
       <use xlink:href="#DejaVuSans-20" x="138.671875"/>
       <use xlink:href="#DejaVuSans-31" x="170.458984"/>
       <use xlink:href="#DejaVuSans-34" x="234.082031"/>
      </g>
     </g>
    </g>
    <g id="xtick_2">
     <g id="line2d_2">
      <g>
       <use xlink:href="#mee811b990f" x="242.0025" y="390.04" style="stroke: #000000; stroke-width: 0.8"/>
      </g>
     </g>
     <g id="text_2">
      <!-- FS 15 -->
      <g transform="translate(228.088437 404.638438) scale(0.1 -0.1)">
       <defs>
        <path id="DejaVuSans-46" d="M 628 4666 
L 3309 4666 
L 3309 4134 
L 1259 4134 
L 1259 2759 
L 3109 2759 
L 3109 2228 
L 1259 2228 
L 1259 0 
L 628 0 
L 628 4666 
z
" transform="scale(0.015625)"/>
        <path id="DejaVuSans-35" d="M 691 4666 
L 3169 4666 
L 3169 4134 
L 1269 4134 
L 1269 2991 
Q 1406 3038 1543 3061 
Q 1681 3084 1819 3084 
Q 2600 3084 3056 2656 
Q 3513 2228 3513 1497 
Q 3513 744 3044 326 
Q 2575 -91 1722 -91 
Q 1428 -91 1123 -41 
Q 819 9 494 109 
L 494 744 
Q 775 591 1075 516 
Q 1375 441 1709 441 
Q 2250 441 2565 725 
Q 2881 1009 2881 1497 
Q 2881 1984 2565 2268 
Q 2250 2553 1709 2553 
Q 1456 2553 1204 2497 
Q 953 2441 691 2322 
L 691 4666 
z
" transform="scale(0.015625)"/>
       </defs>
       <use xlink:href="#DejaVuSans-46"/>
       <use xlink:href="#DejaVuSans-53" x="55.769531"/>
       <use xlink:href="#DejaVuSans-20" x="119.246094"/>
       <use xlink:href="#DejaVuSans-31" x="151.033203"/>
       <use xlink:href="#DejaVuSans-35" x="214.65625"/>
      </g>
     </g>
    </g>
    <g id="xtick_3">
     <g id="line2d_3">
      <g>
       <use xlink:href="#mee811b990f" x="377.824167" y="390.04" style="stroke: #000000; stroke-width: 0.8"/>
      </g>
     </g>
     <g id="text_3">
      <!-- HS 15 -->
      <g transform="translate(362.938229 404.638438) scale(0.1 -0.1)">
       <use xlink:href="#DejaVuSans-48"/>
       <use xlink:href="#DejaVuSans-53" x="75.195312"/>
       <use xlink:href="#DejaVuSans-20" x="138.671875"/>
       <use xlink:href="#DejaVuSans-31" x="170.458984"/>
       <use xlink:href="#DejaVuSans-35" x="234.082031"/>
      </g>
     </g>
    </g>
    <g id="xtick_4">
     <g id="line2d_4">
      <g>
       <use xlink:href="#mee811b990f" x="513.645833" y="390.04" style="stroke: #000000; stroke-width: 0.8"/>
      </g>
     </g>
     <g id="text_4">
      <!-- FS 16 -->
      <g transform="translate(499.731771 404.638438) scale(0.1 -0.1)">
       <defs>
        <path id="DejaVuSans-36" d="M 2113 2584 
Q 1688 2584 1439 2293 
Q 1191 2003 1191 1497 
Q 1191 994 1439 701 
Q 1688 409 2113 409 
Q 2538 409 2786 701 
Q 3034 994 3034 1497 
Q 3034 2003 2786 2293 
Q 2538 2584 2113 2584 
z
M 3366 4563 
L 3366 3988 
Q 3128 4100 2886 4159 
Q 2644 4219 2406 4219 
Q 1781 4219 1451 3797 
Q 1122 3375 1075 2522 
Q 1259 2794 1537 2939 
Q 1816 3084 2150 3084 
Q 2853 3084 3261 2657 
Q 3669 2231 3669 1497 
Q 3669 778 3244 343 
Q 2819 -91 2113 -91 
Q 1303 -91 875 529 
Q 447 1150 447 2328 
Q 447 3434 972 4092 
Q 1497 4750 2381 4750 
Q 2619 4750 2861 4703 
Q 3103 4656 3366 4563 
z
" transform="scale(0.015625)"/>
       </defs>
       <use xlink:href="#DejaVuSans-46"/>
       <use xlink:href="#DejaVuSans-53" x="55.769531"/>
       <use xlink:href="#DejaVuSans-20" x="119.246094"/>
       <use xlink:href="#DejaVuSans-31" x="151.033203"/>
       <use xlink:href="#DejaVuSans-36" x="214.65625"/>
      </g>
     </g>
    </g>
    <g id="xtick_5">
     <g id="line2d_5">
      <g>
       <use xlink:href="#mee811b990f" x="649.4675" y="390.04" style="stroke: #000000; stroke-width: 0.8"/>
      </g>
     </g>
     <g id="text_5">
      <!-- HS 16 -->
      <g transform="translate(634.581563 404.638438) scale(0.1 -0.1)">
       <use xlink:href="#DejaVuSans-48"/>
       <use xlink:href="#DejaVuSans-53" x="75.195312"/>
       <use xlink:href="#DejaVuSans-20" x="138.671875"/>
       <use xlink:href="#DejaVuSans-31" x="170.458984"/>
       <use xlink:href="#DejaVuSans-36" x="234.082031"/>
      </g>
     </g>
    </g>
    <g id="xtick_6">
     <g id="line2d_6">
      <g>
       <use xlink:href="#mee811b990f" x="785.289167" y="390.04" style="stroke: #000000; stroke-width: 0.8"/>
      </g>
     </g>
     <g id="text_6">
      <!-- FS 17 -->
      <g transform="translate(771.375104 404.638438) scale(0.1 -0.1)">
       <defs>
        <path id="DejaVuSans-37" d="M 525 4666 
L 3525 4666 
L 3525 4397 
L 1831 0 
L 1172 0 
L 2766 4134 
L 525 4134 
L 525 4666 
z
" transform="scale(0.015625)"/>
       </defs>
       <use xlink:href="#DejaVuSans-46"/>
       <use xlink:href="#DejaVuSans-53" x="55.769531"/>
       <use xlink:href="#DejaVuSans-20" x="119.246094"/>
       <use xlink:href="#DejaVuSans-31" x="151.033203"/>
       <use xlink:href="#DejaVuSans-37" x="214.65625"/>
      </g>
     </g>
    </g>
    <g id="text_7">
     <!-- Semester -->
     <g transform="translate(421.840469 418.316562) scale(0.1 -0.1)">
      <defs>
       <path id="DejaVuSans-65" d="M 3597 1894 
L 3597 1613 
L 953 1613 
Q 991 1019 1311 708 
Q 1631 397 2203 397 
Q 2534 397 2845 478 
Q 3156 559 3463 722 
L 3463 178 
Q 3153 47 2828 -22 
Q 2503 -91 2169 -91 
Q 1331 -91 842 396 
Q 353 884 353 1716 
Q 353 2575 817 3079 
Q 1281 3584 2069 3584 
Q 2775 3584 3186 3129 
Q 3597 2675 3597 1894 
z
M 3022 2063 
Q 3016 2534 2758 2815 
Q 2500 3097 2075 3097 
Q 1594 3097 1305 2825 
Q 1016 2553 972 2059 
L 3022 2063 
z
" transform="scale(0.015625)"/>
       <path id="DejaVuSans-6d" d="M 3328 2828 
Q 3544 3216 3844 3400 
Q 4144 3584 4550 3584 
Q 5097 3584 5394 3201 
Q 5691 2819 5691 2113 
L 5691 0 
L 5113 0 
L 5113 2094 
Q 5113 2597 4934 2840 
Q 4756 3084 4391 3084 
Q 3944 3084 3684 2787 
Q 3425 2491 3425 1978 
L 3425 0 
L 2847 0 
L 2847 2094 
Q 2847 2600 2669 2842 
Q 2491 3084 2119 3084 
Q 1678 3084 1418 2786 
Q 1159 2488 1159 1978 
L 1159 0 
L 581 0 
L 581 3500 
L 1159 3500 
L 1159 2956 
Q 1356 3278 1631 3431 
Q 1906 3584 2284 3584 
Q 2666 3584 2933 3390 
Q 3200 3197 3328 2828 
z
" transform="scale(0.015625)"/>
       <path id="DejaVuSans-73" d="M 2834 3397 
L 2834 2853 
Q 2591 2978 2328 3040 
Q 2066 3103 1784 3103 
Q 1356 3103 1142 2972 
Q 928 2841 928 2578 
Q 928 2378 1081 2264 
Q 1234 2150 1697 2047 
L 1894 2003 
Q 2506 1872 2764 1633 
Q 3022 1394 3022 966 
Q 3022 478 2636 193 
Q 2250 -91 1575 -91 
Q 1294 -91 989 -36 
Q 684 19 347 128 
L 347 722 
Q 666 556 975 473 
Q 1284 391 1588 391 
Q 1994 391 2212 530 
Q 2431 669 2431 922 
Q 2431 1156 2273 1281 
Q 2116 1406 1581 1522 
L 1381 1569 
Q 847 1681 609 1914 
Q 372 2147 372 2553 
Q 372 3047 722 3315 
Q 1072 3584 1716 3584 
Q 2034 3584 2315 3537 
Q 2597 3491 2834 3397 
z
" transform="scale(0.015625)"/>
       <path id="DejaVuSans-74" d="M 1172 4494 
L 1172 3500 
L 2356 3500 
L 2356 3053 
L 1172 3053 
L 1172 1153 
Q 1172 725 1289 603 
Q 1406 481 1766 481 
L 2356 481 
L 2356 0 
L 1766 0 
Q 1100 0 847 248 
Q 594 497 594 1153 
L 594 3053 
L 172 3053 
L 172 3500 
L 594 3500 
L 594 4494 
L 1172 4494 
z
" transform="scale(0.015625)"/>
       <path id="DejaVuSans-72" d="M 2631 2963 
Q 2534 3019 2420 3045 
Q 2306 3072 2169 3072 
Q 1681 3072 1420 2755 
Q 1159 2438 1159 1844 
L 1159 0 
L 581 0 
L 581 3500 
L 1159 3500 
L 1159 2956 
Q 1341 3275 1631 3429 
Q 1922 3584 2338 3584 
Q 2397 3584 2469 3576 
Q 2541 3569 2628 3553 
L 2631 2963 
z
" transform="scale(0.015625)"/>
      </defs>
      <use xlink:href="#DejaVuSans-53"/>
      <use xlink:href="#DejaVuSans-65" x="63.476562"/>
      <use xlink:href="#DejaVuSans-6d" x="125"/>
      <use xlink:href="#DejaVuSans-65" x="222.412109"/>
      <use xlink:href="#DejaVuSans-73" x="283.935547"/>
      <use xlink:href="#DejaVuSans-74" x="336.035156"/>
      <use xlink:href="#DejaVuSans-65" x="375.244141"/>
      <use xlink:href="#DejaVuSans-72" x="436.767578"/>
     </g>
    </g>
   </g>
   <g id="matplotlib.axis_2">
    <g id="ytick_1">
     <g id="line2d_7">
      <defs>
       <path id="m9404fbf9cd" d="M 0 0 
L -3.5 0 
" style="stroke: #000000; stroke-width: 0.8"/>
      </defs>
      <g>
       <use xlink:href="#m9404fbf9cd" x="38.27" y="373.532727" style="stroke: #000000; stroke-width: 0.8"/>
      </g>
     </g>
     <g id="text_8">
      <!-- 1 -->
      <g transform="translate(24.9075 377.331946) scale(0.1 -0.1)">
       <use xlink:href="#DejaVuSans-31"/>
      </g>
     </g>
    </g>
    <g id="ytick_2">
     <g id="line2d_8">
      <g>
       <use xlink:href="#m9404fbf9cd" x="38.27" y="307.503636" style="stroke: #000000; stroke-width: 0.8"/>
      </g>
     </g>
     <g id="text_9">
      <!-- 2 -->
      <g transform="translate(24.9075 311.302855) scale(0.1 -0.1)">
       <defs>
        <path id="DejaVuSans-32" d="M 1228 531 
L 3431 531 
L 3431 0 
L 469 0 
L 469 531 
Q 828 903 1448 1529 
Q 2069 2156 2228 2338 
Q 2531 2678 2651 2914 
Q 2772 3150 2772 3378 
Q 2772 3750 2511 3984 
Q 2250 4219 1831 4219 
Q 1534 4219 1204 4116 
Q 875 4013 500 3803 
L 500 4441 
Q 881 4594 1212 4672 
Q 1544 4750 1819 4750 
Q 2544 4750 2975 4387 
Q 3406 4025 3406 3419 
Q 3406 3131 3298 2873 
Q 3191 2616 2906 2266 
Q 2828 2175 2409 1742 
Q 1991 1309 1228 531 
z
" transform="scale(0.015625)"/>
       </defs>
       <use xlink:href="#DejaVuSans-32"/>
      </g>
     </g>
    </g>
    <g id="ytick_3">
     <g id="line2d_9">
      <g>
       <use xlink:href="#m9404fbf9cd" x="38.27" y="241.474545" style="stroke: #000000; stroke-width: 0.8"/>
      </g>
     </g>
     <g id="text_10">
      <!-- 3 -->
      <g transform="translate(24.9075 245.273764) scale(0.1 -0.1)">
       <defs>
        <path id="DejaVuSans-33" d="M 2597 2516 
Q 3050 2419 3304 2112 
Q 3559 1806 3559 1356 
Q 3559 666 3084 287 
Q 2609 -91 1734 -91 
Q 1441 -91 1130 -33 
Q 819 25 488 141 
L 488 750 
Q 750 597 1062 519 
Q 1375 441 1716 441 
Q 2309 441 2620 675 
Q 2931 909 2931 1356 
Q 2931 1769 2642 2001 
Q 2353 2234 1838 2234 
L 1294 2234 
L 1294 2753 
L 1863 2753 
Q 2328 2753 2575 2939 
Q 2822 3125 2822 3475 
Q 2822 3834 2567 4026 
Q 2313 4219 1838 4219 
Q 1578 4219 1281 4162 
Q 984 4106 628 3988 
L 628 4550 
Q 988 4650 1302 4700 
Q 1616 4750 1894 4750 
Q 2613 4750 3031 4423 
Q 3450 4097 3450 3541 
Q 3450 3153 3228 2886 
Q 3006 2619 2597 2516 
z
" transform="scale(0.015625)"/>
       </defs>
       <use xlink:href="#DejaVuSans-33"/>
      </g>
     </g>
    </g>
    <g id="ytick_4">
     <g id="line2d_10">
      <g>
       <use xlink:href="#m9404fbf9cd" x="38.27" y="175.445455" style="stroke: #000000; stroke-width: 0.8"/>
      </g>
     </g>
     <g id="text_11">
      <!-- 4 -->
      <g transform="translate(24.9075 179.244673) scale(0.1 -0.1)">
       <use xlink:href="#DejaVuSans-34"/>
      </g>
     </g>
    </g>
    <g id="ytick_5">
     <g id="line2d_11">
      <g>
       <use xlink:href="#m9404fbf9cd" x="38.27" y="109.416364" style="stroke: #000000; stroke-width: 0.8"/>
      </g>
     </g>
     <g id="text_12">
      <!-- 5 -->
      <g transform="translate(24.9075 113.215582) scale(0.1 -0.1)">
       <use xlink:href="#DejaVuSans-35"/>
      </g>
     </g>
    </g>
    <g id="ytick_6">
     <g id="line2d_12">
      <g>
       <use xlink:href="#m9404fbf9cd" x="38.27" y="43.387273" style="stroke: #000000; stroke-width: 0.8"/>
      </g>
     </g>
     <g id="text_13">
      <!-- 6 -->
      <g transform="translate(24.9075 47.186491) scale(0.1 -0.1)">
       <use xlink:href="#DejaVuSans-36"/>
      </g>
     </g>
    </g>
    <g id="text_14">
     <!-- Noten -->
     <g transform="translate(18.827813 223.465469) rotate(-90) scale(0.1 -0.1)">
      <defs>
       <path id="DejaVuSans-4e" d="M 628 4666 
L 1478 4666 
L 3547 763 
L 3547 4666 
L 4159 4666 
L 4159 0 
L 3309 0 
L 1241 3903 
L 1241 0 
L 628 0 
L 628 4666 
z
" transform="scale(0.015625)"/>
       <path id="DejaVuSans-6f" d="M 1959 3097 
Q 1497 3097 1228 2736 
Q 959 2375 959 1747 
Q 959 1119 1226 758 
Q 1494 397 1959 397 
Q 2419 397 2687 759 
Q 2956 1122 2956 1747 
Q 2956 2369 2687 2733 
Q 2419 3097 1959 3097 
z
M 1959 3584 
Q 2709 3584 3137 3096 
Q 3566 2609 3566 1747 
Q 3566 888 3137 398 
Q 2709 -91 1959 -91 
Q 1206 -91 779 398 
Q 353 888 353 1747 
Q 353 2609 779 3096 
Q 1206 3584 1959 3584 
z
" transform="scale(0.015625)"/>
       <path id="DejaVuSans-6e" d="M 3513 2113 
L 3513 0 
L 2938 0 
L 2938 2094 
Q 2938 2591 2744 2837 
Q 2550 3084 2163 3084 
Q 1697 3084 1428 2787 
Q 1159 2491 1159 1978 
L 1159 0 
L 581 0 
L 581 3500 
L 1159 3500 
L 1159 2956 
Q 1366 3272 1645 3428 
Q 1925 3584 2291 3584 
Q 2894 3584 3203 3211 
Q 3513 2838 3513 2113 
z
" transform="scale(0.015625)"/>
      </defs>
      <use xlink:href="#DejaVuSans-4e"/>
      <use xlink:href="#DejaVuSans-6f" x="74.804688"/>
      <use xlink:href="#DejaVuSans-74" x="135.986328"/>
      <use xlink:href="#DejaVuSans-65" x="175.195312"/>
      <use xlink:href="#DejaVuSans-6e" x="236.71875"/>
     </g>
    </g>
   </g>
   <g id="patch_3">
    <path d="M 51.852167 158.938182 
L 160.5095 158.938182 
L 160.5095 109.416364 
L 51.852167 109.416364 
L 51.852167 158.938182 
z
" clip-path="url(#p67c228b8b0)" style="fill: #94c9de; stroke: #3d3d3d; stroke-linejoin: miter"/>
   </g>
   <g id="line2d_13">
    <path d="M 106.180833 158.938182 
L 106.180833 208.46 
" clip-path="url(#p67c228b8b0)" style="fill: none; stroke: #3d3d3d"/>
   </g>
   <g id="line2d_14">
    <path d="M 106.180833 109.416364 
L 106.180833 51.640909 
" clip-path="url(#p67c228b8b0)" style="fill: none; stroke: #3d3d3d"/>
   </g>
   <g id="line2d_15">
    <path d="M 79.0165 208.46 
L 133.345167 208.46 
" clip-path="url(#p67c228b8b0)" style="fill: none; stroke: #3d3d3d; stroke-linecap: square"/>
   </g>
   <g id="line2d_16">
    <path d="M 79.0165 51.640909 
L 133.345167 51.640909 
" clip-path="url(#p67c228b8b0)" style="fill: none; stroke: #3d3d3d; stroke-linecap: square"/>
   </g>
   <g id="line2d_17">
    <defs>
     <path id="me89cad0bbe" d="M 0 3 
C 0.795609 3 1.55874 2.683901 2.12132 2.12132 
C 2.683901 1.55874 3 0.795609 3 0 
C 3 -0.795609 2.683901 -1.55874 2.12132 -2.12132 
C 1.55874 -2.683901 0.795609 -3 0 -3 
C -0.795609 -3 -1.55874 -2.683901 -2.12132 -2.12132 
C -2.683901 -1.55874 -3 -0.795609 -3 0 
C -3 0.795609 -2.683901 1.55874 -2.12132 2.12132 
C -1.55874 2.683901 -0.795609 3 0 3 
z
" style="stroke: #3d3d3d"/>
    </defs>
    <g clip-path="url(#p67c228b8b0)">
     <use xlink:href="#me89cad0bbe" x="106.180833" y="257.981818" style="fill-opacity: 0; stroke: #3d3d3d"/>
    </g>
   </g>
   <g id="patch_4">
    <path d="M 187.673833 158.938182 
L 296.331167 158.938182 
L 296.331167 117.67 
L 187.673833 117.67 
L 187.673833 158.938182 
z
" clip-path="url(#p67c228b8b0)" style="fill: #94c9de; stroke: #3d3d3d; stroke-linejoin: miter"/>
   </g>
   <g id="line2d_18">
    <path d="M 242.0025 158.938182 
L 242.0025 208.46 
" clip-path="url(#p67c228b8b0)" style="fill: none; stroke: #3d3d3d"/>
   </g>
   <g id="line2d_19">
    <path d="M 242.0025 117.67 
L 242.0025 59.894545 
" clip-path="url(#p67c228b8b0)" style="fill: none; stroke: #3d3d3d"/>
   </g>
   <g id="line2d_20">
    <path d="M 214.838167 208.46 
L 269.166833 208.46 
" clip-path="url(#p67c228b8b0)" style="fill: none; stroke: #3d3d3d; stroke-linecap: square"/>
   </g>
   <g id="line2d_21">
    <path d="M 214.838167 59.894545 
L 269.166833 59.894545 
" clip-path="url(#p67c228b8b0)" style="fill: none; stroke: #3d3d3d; stroke-linecap: square"/>
   </g>
   <g id="line2d_22">
    <g clip-path="url(#p67c228b8b0)">
     <use xlink:href="#me89cad0bbe" x="242.0025" y="233.220909" style="fill-opacity: 0; stroke: #3d3d3d"/>
     <use xlink:href="#me89cad0bbe" x="242.0025" y="224.967273" style="fill-opacity: 0; stroke: #3d3d3d"/>
     <use xlink:href="#me89cad0bbe" x="242.0025" y="224.967273" style="fill-opacity: 0; stroke: #3d3d3d"/>
     <use xlink:href="#me89cad0bbe" x="242.0025" y="51.640909" style="fill-opacity: 0; stroke: #3d3d3d"/>
     <use xlink:href="#me89cad0bbe" x="242.0025" y="43.387273" style="fill-opacity: 0; stroke: #3d3d3d"/>
    </g>
   </g>
   <g id="patch_5">
    <path d="M 323.4955 175.445455 
L 432.152833 175.445455 
L 432.152833 109.416364 
L 323.4955 109.416364 
L 323.4955 175.445455 
z
" clip-path="url(#p67c228b8b0)" style="fill: #94c9de; stroke: #3d3d3d; stroke-linejoin: miter"/>
   </g>
   <g id="line2d_23">
    <path d="M 377.824167 175.445455 
L 377.824167 274.489091 
" clip-path="url(#p67c228b8b0)" style="fill: none; stroke: #3d3d3d"/>
   </g>
   <g id="line2d_24">
    <path d="M 377.824167 109.416364 
L 377.824167 43.387273 
" clip-path="url(#p67c228b8b0)" style="fill: none; stroke: #3d3d3d"/>
   </g>
   <g id="line2d_25">
    <path d="M 350.659833 274.489091 
L 404.9885 274.489091 
" clip-path="url(#p67c228b8b0)" style="fill: none; stroke: #3d3d3d; stroke-linecap: square"/>
   </g>
   <g id="line2d_26">
    <path d="M 350.659833 43.387273 
L 404.9885 43.387273 
" clip-path="url(#p67c228b8b0)" style="fill: none; stroke: #3d3d3d; stroke-linecap: square"/>
   </g>
   <g id="line2d_27">
    <g clip-path="url(#p67c228b8b0)">
     <use xlink:href="#me89cad0bbe" x="377.824167" y="373.532727" style="fill-opacity: 0; stroke: #3d3d3d"/>
    </g>
   </g>
   <g id="patch_6">
    <path d="M 459.317167 158.938182 
L 567.9745 158.938182 
L 567.9745 102.813455 
L 459.317167 102.813455 
L 459.317167 158.938182 
z
" clip-path="url(#p67c228b8b0)" style="fill: #94c9de; stroke: #3d3d3d; stroke-linejoin: miter"/>
   </g>
   <g id="line2d_28">
    <path d="M 513.645833 158.938182 
L 513.645833 241.474545 
" clip-path="url(#p67c228b8b0)" style="fill: none; stroke: #3d3d3d"/>
   </g>
   <g id="line2d_29">
    <path d="M 513.645833 102.813455 
L 513.645833 43.387273 
" clip-path="url(#p67c228b8b0)" style="fill: none; stroke: #3d3d3d"/>
   </g>
   <g id="line2d_30">
    <path d="M 486.4815 241.474545 
L 540.810167 241.474545 
" clip-path="url(#p67c228b8b0)" style="fill: none; stroke: #3d3d3d; stroke-linecap: square"/>
   </g>
   <g id="line2d_31">
    <path d="M 486.4815 43.387273 
L 540.810167 43.387273 
" clip-path="url(#p67c228b8b0)" style="fill: none; stroke: #3d3d3d; stroke-linecap: square"/>
   </g>
   <g id="line2d_32"/>
   <g id="patch_7">
    <path d="M 595.138833 142.430909 
L 703.796167 142.430909 
L 703.796167 92.909091 
L 595.138833 92.909091 
L 595.138833 142.430909 
z
" clip-path="url(#p67c228b8b0)" style="fill: #94c9de; stroke: #3d3d3d; stroke-linejoin: miter"/>
   </g>
   <g id="line2d_33">
    <path d="M 649.4675 142.430909 
L 649.4675 208.46 
" clip-path="url(#p67c228b8b0)" style="fill: none; stroke: #3d3d3d"/>
   </g>
   <g id="line2d_34">
    <path d="M 649.4675 92.909091 
L 649.4675 43.387273 
" clip-path="url(#p67c228b8b0)" style="fill: none; stroke: #3d3d3d"/>
   </g>
   <g id="line2d_35">
    <path d="M 622.303167 208.46 
L 676.631833 208.46 
" clip-path="url(#p67c228b8b0)" style="fill: none; stroke: #3d3d3d; stroke-linecap: square"/>
   </g>
   <g id="line2d_36">
    <path d="M 622.303167 43.387273 
L 676.631833 43.387273 
" clip-path="url(#p67c228b8b0)" style="fill: none; stroke: #3d3d3d; stroke-linecap: square"/>
   </g>
   <g id="line2d_37">
    <g clip-path="url(#p67c228b8b0)">
     <use xlink:href="#me89cad0bbe" x="649.4675" y="233.220909" style="fill-opacity: 0; stroke: #3d3d3d"/>
    </g>
   </g>
   <g id="patch_8">
    <path d="M 730.9605 158.938182 
L 839.617833 158.938182 
L 839.617833 101.162727 
L 730.9605 101.162727 
L 730.9605 158.938182 
z
" clip-path="url(#p67c228b8b0)" style="fill: #94c9de; stroke: #3d3d3d; stroke-linejoin: miter"/>
   </g>
   <g id="line2d_38">
    <path d="M 785.289167 158.938182 
L 785.289167 224.967273 
" clip-path="url(#p67c228b8b0)" style="fill: none; stroke: #3d3d3d"/>
   </g>
   <g id="line2d_39">
    <path d="M 785.289167 101.162727 
L 785.289167 51.640909 
" clip-path="url(#p67c228b8b0)" style="fill: none; stroke: #3d3d3d"/>
   </g>
   <g id="line2d_40">
    <path d="M 758.124833 224.967273 
L 812.4535 224.967273 
" clip-path="url(#p67c228b8b0)" style="fill: none; stroke: #3d3d3d; stroke-linecap: square"/>
   </g>
   <g id="line2d_41">
    <path d="M 758.124833 51.640909 
L 812.4535 51.640909 
" clip-path="url(#p67c228b8b0)" style="fill: none; stroke: #3d3d3d; stroke-linecap: square"/>
   </g>
   <g id="line2d_42"/>
   <g id="line2d_43">
    <path d="M 51.852167 125.923636 
L 160.5095 125.923636 
" clip-path="url(#p67c228b8b0)" style="fill: none; stroke: #ff0000"/>
   </g>
   <g id="line2d_44">
    <path d="M 187.673833 142.430909 
L 296.331167 142.430909 
" clip-path="url(#p67c228b8b0)" style="fill: none; stroke: #ff0000"/>
   </g>
   <g id="line2d_45">
    <path d="M 323.4955 142.430909 
L 432.152833 142.430909 
" clip-path="url(#p67c228b8b0)" style="fill: none; stroke: #ff0000"/>
   </g>
   <g id="line2d_46">
    <path d="M 459.317167 135.828 
L 567.9745 135.828 
" clip-path="url(#p67c228b8b0)" style="fill: none; stroke: #ff0000"/>
   </g>
   <g id="line2d_47">
    <path d="M 595.138833 120.421212 
L 703.796167 120.421212 
" clip-path="url(#p67c228b8b0)" style="fill: none; stroke: #ff0000"/>
   </g>
   <g id="line2d_48">
    <path d="M 730.9605 125.923636 
L 839.617833 125.923636 
" clip-path="url(#p67c228b8b0)" style="fill: none; stroke: #ff0000"/>
   </g>
   <g id="patch_9">
    <path d="M 38.27 390.04 
L 38.27 26.88 
" style="fill: none; stroke: #000000; stroke-width: 0.8; stroke-linejoin: miter; stroke-linecap: square"/>
   </g>
   <g id="patch_10">
    <path d="M 853.2 390.04 
L 853.2 26.88 
" style="fill: none; stroke: #000000; stroke-width: 0.8; stroke-linejoin: miter; stroke-linecap: square"/>
   </g>
   <g id="patch_11">
    <path d="M 38.27 390.04 
L 853.2 390.04 
" style="fill: none; stroke: #000000; stroke-width: 0.8; stroke-linejoin: miter; stroke-linecap: square"/>
   </g>
   <g id="patch_12">
    <path d="M 38.27 26.88 
L 853.2 26.88 
" style="fill: none; stroke: #000000; stroke-width: 0.8; stroke-linejoin: miter; stroke-linecap: square"/>
   </g>
   <g id="text_15">
    <!-- Semsternoten -->
    <g transform="translate(403.538125 20.88) scale(0.12 -0.12)">
     <use xlink:href="#DejaVuSans-53"/>
     <use xlink:href="#DejaVuSans-65" x="63.476562"/>
     <use xlink:href="#DejaVuSans-6d" x="125"/>
     <use xlink:href="#DejaVuSans-73" x="222.412109"/>
     <use xlink:href="#DejaVuSans-74" x="274.511719"/>
     <use xlink:href="#DejaVuSans-65" x="313.720703"/>
     <use xlink:href="#DejaVuSans-72" x="375.244141"/>
     <use xlink:href="#DejaVuSans-6e" x="414.607422"/>
     <use xlink:href="#DejaVuSans-6f" x="477.986328"/>
     <use xlink:href="#DejaVuSans-74" x="539.167969"/>
     <use xlink:href="#DejaVuSans-65" x="578.376953"/>
     <use xlink:href="#DejaVuSans-6e" x="639.900391"/>
    </g>
   </g>
  </g>
 </g>
 <defs>
  <clipPath id="p67c228b8b0">
   <rect x="38.27" y="26.88" width="814.93" height="363.16"/>
  </clipPath>
 </defs>
</svg>
